<svg width="76" height="15" viewBox="0 0 76 15" fill="none" xmlns="http://www.w3.org/2000/svg">
<path d="M7.97393 0.739789C7.92043 0.575134 7.76699 0.463653 7.59386 0.463653C7.42073 0.463653 7.26729 0.575134 7.21379 0.739789L5.8231 5.0199H1.32273C1.1496 5.0199 0.996157 5.13138 0.942658 5.29603C0.889158 5.46069 0.947766 5.64107 1.08783 5.74283L4.72871 8.38808L3.33802 12.6682C3.28452 12.8328 3.34313 13.0132 3.48319 13.115C3.62326 13.2168 3.81292 13.2168 3.95298 13.115L7.59386 10.4697L11.2347 13.115C11.3748 13.2168 11.5645 13.2168 11.7045 13.115C11.8446 13.0132 11.9032 12.8328 11.8497 12.6682L10.459 8.38808L14.0999 5.74283C14.24 5.64107 14.2986 5.46069 14.2451 5.29603C14.1916 5.13138 14.0381 5.0199 13.865 5.0199H9.36462L7.97393 0.739789Z" fill="#EE8834" stroke="#EE8834" stroke-width="0.799256" stroke-linejoin="round"/>
<path d="M23.1595 0.739789C23.106 0.575134 22.9526 0.463653 22.7795 0.463653C22.6063 0.463653 22.4529 0.575134 22.3994 0.739789L21.0087 5.0199H16.5083C16.3352 5.0199 16.1818 5.13138 16.1283 5.29603C16.0748 5.46069 16.1334 5.64107 16.2734 5.74283L19.9143 8.38808L18.5236 12.6682C18.4701 12.8328 18.5287 13.0132 18.6688 13.115C18.8089 13.2168 18.9985 13.2168 19.1386 13.115L22.7795 10.4697L26.4203 13.115C26.5604 13.2168 26.7501 13.2168 26.8901 13.115C27.0302 13.0132 27.0888 12.8328 27.0353 12.6682L25.6446 8.38808L29.2855 5.74283C29.4256 5.64107 29.4842 5.46069 29.4307 5.29603C29.3772 5.13138 29.2237 5.0199 29.0506 5.0199H24.5502L23.1595 0.739789Z" fill="#EE8834" stroke="#EE8834" stroke-width="0.799256" stroke-linejoin="round"/>
<path d="M38.3457 0.739789C38.2922 0.575134 38.1388 0.463653 37.9656 0.463653C37.7925 0.463653 37.6391 0.575134 37.5856 0.739789L36.1949 5.0199H31.6945C31.5214 5.0199 31.3679 5.13138 31.3144 5.29603C31.2609 5.46069 31.3195 5.64107 31.4596 5.74283L35.1005 8.38808L33.7098 12.6682C33.6563 12.8328 33.7149 13.0132 33.855 13.115C33.995 13.2168 34.1847 13.2168 34.3247 13.115L37.9656 10.4697L41.6065 13.115C41.7466 13.2168 41.9362 13.2168 42.0763 13.115C42.2164 13.0132 42.275 12.8328 42.2215 12.6682L40.8308 8.38808L44.4717 5.74283C44.6117 5.64107 44.6703 5.46069 44.6168 5.29603C44.5633 5.13138 44.4099 5.0199 44.2368 5.0199H39.7364L38.3457 0.739789Z" fill="#EE8834" stroke="#EE8834" stroke-width="0.799256" stroke-linejoin="round"/>
<path d="M53.5314 0.739789C53.4779 0.575134 53.3244 0.463653 53.1513 0.463653C52.9782 0.463653 52.8247 0.575134 52.7712 0.739789L51.3805 5.0199H46.8802C46.707 5.0199 46.5536 5.13138 46.5001 5.29603C46.4466 5.46069 46.5052 5.64107 46.6453 5.74283L50.2861 8.38808L48.8955 12.6682C48.842 12.8328 48.9006 13.0132 49.0406 13.115C49.1807 13.2168 49.3704 13.2168 49.5104 13.115L53.1513 10.4697L56.7922 13.115C56.9322 13.2168 57.1219 13.2168 57.262 13.115C57.402 13.0132 57.4606 12.8328 57.4071 12.6682L56.0164 8.38808L59.6573 5.74283C59.7974 5.64107 59.856 5.46069 59.8025 5.29603C59.749 5.13138 59.5956 5.0199 59.4224 5.0199H54.9221L53.5314 0.739789Z" fill="#EE8834" stroke="#EE8834" stroke-width="0.799256" stroke-linejoin="round"/>
<path d="M68.7175 0.739789C68.664 0.575134 68.5106 0.463653 68.3375 0.463653C68.1643 0.463653 68.0109 0.575134 67.9574 0.739789L66.5667 5.0199H62.0663C61.8932 5.0199 61.7397 5.13138 61.6862 5.29603C61.6327 5.46069 61.6914 5.64107 61.8314 5.74283L65.4723 8.38808L64.0816 12.6682C64.0281 12.8328 64.0867 13.0132 64.2268 13.115C64.3668 13.2168 64.5565 13.2168 64.6966 13.115L68.3375 10.4697L71.9783 13.115C72.1184 13.2168 72.3081 13.2168 72.4481 13.115C72.5882 13.0132 72.6468 12.8328 72.5933 12.6682L71.2026 8.38808L74.8435 5.74283C74.9835 5.64107 75.0422 5.46069 74.9887 5.29603C74.9352 5.13138 74.7817 5.0199 74.6086 5.0199H70.1082L68.7175 0.739789Z" fill="#EE8834" stroke="#EE8834" stroke-width="0.799256" stroke-linejoin="round"/>
</svg>
