<svg width="333" height="843" viewBox="0 0 333 843" fill="none" xmlns="http://www.w3.org/2000/svg">
<line x1="81.5" y1="15" x2="81.5" y2="806" stroke="#1C57FF"/>
<path d="M107.938 749.094C108.828 749.094 109.547 748.375 109.547 747.484C109.547 746.609 108.828 745.891 107.938 745.891C107.062 745.891 106.344 746.609 106.344 747.484C106.344 748.375 107.062 749.094 107.938 749.094ZM127.484 741.422V740.359H126.203V741.422C126.195 743.812 123.5 745.914 121.094 746.375L121.656 747.406C123.758 746.914 125.953 745.43 126.859 743.391C127.758 745.43 129.961 746.922 132.062 747.406L132.625 746.375C130.211 745.922 127.492 743.805 127.484 741.422ZM120.562 751.375H133.281V750.359H120.562V751.375ZM142.051 740.516H134.536V741.531H135.926V745.883C135.301 745.891 134.7 745.891 134.145 745.891L134.301 746.938C136.708 746.938 139.981 746.898 142.833 746.469L142.739 745.547C142.067 745.625 141.364 745.68 140.645 745.727V741.531H142.051V740.516ZM136.036 749.5H144.161V753.266H145.379V748.484H136.036V749.5ZM137.114 745.867V741.531H139.458V745.789C138.668 745.828 137.879 745.852 137.114 745.867ZM144.161 747.812H145.379V739.375H144.161V747.812ZM154.123 740.156C152.255 740.141 150.943 741.438 150.951 743.297C150.943 745.148 152.255 746.445 154.123 746.438C155.974 746.445 157.302 745.148 157.31 743.297C157.302 741.438 155.974 740.141 154.123 740.156ZM152.06 743.297C152.044 742.047 152.927 741.164 154.123 741.156C155.302 741.164 156.177 742.047 156.185 743.297C156.177 744.531 155.302 745.414 154.123 745.422C152.927 745.414 152.044 744.531 152.06 743.297ZM153.435 753.078H162.591V747.578H161.388V749.234H154.654V747.578H153.435V753.078ZM154.654 752.078V750.25H161.388V752.078H154.654ZM158.419 746.844H159.576V743.609H161.419V746.953H162.591V739.391H161.419V742.578H159.576V739.656H158.419V746.844ZM172.178 740.688H170.756L167.944 742.562V743.984L170.694 742.156H170.756V752H172.178V740.688ZM178.417 752.156C180.925 752.156 182.37 750.047 182.37 746.344C182.37 742.672 180.901 740.531 178.417 740.531C175.925 740.531 174.456 742.672 174.464 746.344C174.456 750.047 175.909 752.156 178.417 752.156ZM175.823 746.344C175.831 743.414 176.792 741.758 178.417 741.75C180.042 741.758 181.003 743.414 180.995 746.344C181.003 749.273 180.05 750.906 178.417 750.906C176.776 750.906 175.831 749.273 175.823 746.344ZM187.468 752.156C189.976 752.156 191.421 750.047 191.421 746.344C191.421 742.672 189.952 740.531 187.468 740.531C184.976 740.531 183.507 742.672 183.515 746.344C183.507 750.047 184.96 752.156 187.468 752.156ZM184.874 746.344C184.882 743.414 185.843 741.758 187.468 741.75C189.093 741.758 190.054 743.414 190.046 746.344C190.054 749.273 189.101 750.906 187.468 750.906C185.827 750.906 184.882 749.273 184.874 746.344ZM199.332 740.641H192.91V747.031H199.332V740.641ZM194.113 746.047V741.641H198.144V746.047H194.113ZM194.488 752.969H203.816V751.938H195.691V748.594H194.488V752.969ZM201.957 749.562H203.176V744.641H205.269V743.609H203.176V739.375H201.957V749.562ZM219.95 739.375H218.731V753.297H219.95V745.906H222.278V744.875H219.95V739.375ZM209.809 749.812H210.903C213.544 749.812 215.364 749.734 217.544 749.344L217.387 748.281C215.317 748.664 213.544 748.773 211.028 748.781V741.75H216.294V740.734H209.809V749.812ZM235.251 746.438H222.533V747.453H228.376V750.297H229.611V747.453H235.251V746.438ZM223.97 742.531C223.962 744.242 225.908 745.305 228.876 745.297C231.845 745.305 233.767 744.242 233.767 742.531C233.767 740.805 231.845 739.742 228.876 739.734C225.908 739.742 223.962 740.805 223.97 742.531ZM224.173 752.969H233.829V751.922H225.408V748.906H224.173V752.969ZM225.283 742.531C225.267 741.422 226.712 740.742 228.876 740.734C231.033 740.742 232.47 741.422 232.47 742.531C232.47 743.609 231.033 744.297 228.876 744.297C226.712 744.297 225.267 743.609 225.283 742.531ZM248.615 750.516H242.818V747.891H247.334V746.875H238.709V744.609H247.006V740.406H237.459V741.422H245.803V743.609H237.49V747.891H241.615V750.516H235.896V751.547H248.615V750.516ZM260.463 746.062H252.088V741.688H260.322V740.672H250.869V747.078H260.463V746.062ZM249.244 751.375H261.963V750.344H249.244V751.375ZM272.941 740.188H266.769V745.844H267.847C270.706 745.859 272.402 745.781 274.394 745.359L274.238 744.375C272.339 744.758 270.698 744.859 267.972 744.844V741.188H272.941V740.188ZM268.128 748.078H275.769V749.531H268.159V753.078H277.503V752.078H269.363V750.5H276.988V747.078H268.128V748.078ZM275.769 746.391H276.988V743.344H279.081V742.328H276.988V739.375H275.769V746.391ZM284.258 741.562V740.172H283.039V741.609C283.023 743.766 281.601 745.609 279.461 746.359L280.133 747.359C281.812 746.727 283.078 745.438 283.672 743.773C284.273 745.234 285.476 746.367 287.008 746.938L287.695 745.984C285.656 745.289 284.242 743.547 284.258 741.562ZM281.726 750.641C281.718 752.297 283.492 753.234 286.383 753.234C289.265 753.234 291.039 752.297 291.039 750.641C291.039 748.969 289.265 748.008 286.383 748.016C283.492 748.008 281.718 748.969 281.726 750.641ZM282.945 750.641C282.937 749.602 284.25 748.984 286.383 748.984C288.508 748.984 289.82 749.602 289.82 750.641C289.82 751.648 288.508 752.258 286.383 752.25C284.25 752.258 282.937 751.648 282.945 750.641ZM286.664 743.375H289.758V747.609H290.992V739.375H289.758V742.359H286.664V743.375Z" fill="black"/>
<path d="M107.938 660.094C108.828 660.094 109.547 659.375 109.547 658.484C109.547 657.609 108.828 656.891 107.938 656.891C107.062 656.891 106.344 657.609 106.344 658.484C106.344 659.375 107.062 660.094 107.938 660.094ZM131.547 651.281H122.156V652.297H130.328V652.5C130.328 653.797 130.328 655.25 129.906 657.25H120.562V658.266H126.25V664.297H127.484V658.266H133.219V657.25H131.148C131.547 655.258 131.547 653.812 131.547 652.5V651.281ZM144.958 650.984H135.52V651.984H143.739C143.747 652.898 143.731 654.031 143.411 655.578H133.911V656.562H146.629V655.578H144.645C144.958 654.016 144.958 652.812 144.958 651.875V650.984ZM135.426 658.953H143.786V660.5H135.442V664.109H145.364V663.109H136.676V661.469H145.004V657.969H135.426V658.953ZM157.123 650.547C154.021 650.547 152.201 651.406 152.201 652.953C152.201 654.406 153.779 655.242 156.498 655.359V656.422H150.794V657.422H163.451V656.422H157.701V655.359C160.435 655.258 162.021 654.414 162.029 652.953C162.021 651.406 160.208 650.547 157.123 650.547ZM152.326 659.547H160.623V660.797H152.357V664.109H162.248V663.141H153.576V661.703H161.826V658.594H152.326V659.547ZM153.482 652.953C153.466 652.039 154.818 651.5 157.123 651.484C159.427 651.5 160.771 652.039 160.779 652.953C160.771 653.906 159.427 654.422 157.123 654.438C154.818 654.422 153.466 653.906 153.482 652.953ZM171.08 652.781H168.221V650.797H167.002V652.781H164.111V653.781H171.08V652.781ZM164.611 657.875C164.611 659.742 165.869 661.055 167.596 661.062C169.346 661.055 170.596 659.742 170.611 657.875C170.596 656.031 169.346 654.727 167.596 654.719C165.869 654.727 164.611 656.031 164.611 657.875ZM165.705 657.875C165.705 656.656 166.494 655.766 167.596 655.75C168.705 655.766 169.518 656.656 169.518 657.875C169.518 659.109 168.705 659.992 167.596 659.984C166.494 659.992 165.705 659.109 165.705 657.875ZM171.799 663.578H172.955V657.25H174.799V664.266H175.971V650.375H174.799V656.234H172.955V650.719H171.799V663.578ZM190.194 656.828H177.475V657.797H190.194V656.828ZM179.006 659.828H187.381V661.016H179.022V664.078H189.053V663.188H180.256V661.859H188.6V658.906H179.006V659.828ZM179.084 651.688H187.319V652.828H179.131V655.781H188.803V654.891H180.35V653.672H188.553V650.797H179.084V651.688ZM205.827 650.375H204.624V658.453H205.827V650.375ZM195.109 657.172H201.64V650.969H200.421V653.125H196.327V650.969H195.109V657.172ZM196.109 663.328L196.546 664.266C198.64 663.984 200.593 663.031 201.421 661.719C202.242 663 204.148 663.977 206.218 664.266L206.671 663.312C204.327 663.031 202.124 661.727 202.062 660.406H206.187V659.438H202.031V658.094H200.812V659.438H196.687V660.406H200.796C200.726 661.766 198.46 663.062 196.109 663.328ZM196.327 656.188V654.078H200.421V656.188H196.327ZM219.519 650.391H218.348V654.422H216.379V650.656H215.223V660.25H216.379V655.469H218.348V660.703H219.519V650.391ZM208.426 657.828H209.285C210.926 657.836 212.465 657.773 214.348 657.406L214.207 656.391C212.527 656.711 211.113 656.797 209.644 656.812V651.562H208.426V657.828ZM210.379 663.812H219.941V662.797H211.598V659.25H210.379V663.812ZM229.309 654.641V652.828H232.434V651.812H224.872V652.828H228.106V654.641C228.091 657.008 226.372 659.648 224.372 660.625L225.122 661.594C226.677 660.797 228.067 659 228.708 656.961C229.333 658.844 230.653 660.484 232.216 661.25L232.919 660.281C230.903 659.32 229.294 656.867 229.309 654.641ZM234.137 664.266H235.356V657.047H237.684V656H235.356V650.375H234.137V664.266ZM249.439 650.375H248.204V664.266H249.439V650.375ZM238.126 660.656L238.798 661.656C243.454 659.422 245.314 655.883 245.329 651.891H238.767V652.891H244.079C243.806 656.211 241.884 658.875 238.126 660.656ZM263.193 650.375H262.021V664.266H263.193V650.375ZM251.287 660.375L252.037 661.266C254.662 659.695 256.185 657.617 256.857 655.266H259.209V657.734H256.631V658.75H259.209V663.562H260.381V650.75H259.209V654.25H257.099C257.224 653.57 257.287 652.867 257.287 652.156H251.912V653.172H256.068C255.826 656.078 254.31 658.586 251.287 660.375ZM266.447 650.969H265.244V657.016H271.713V650.969H270.494V652.969H266.447V650.969ZM266.447 656.016V653.922H270.494V656.016H266.447ZM266.651 659.203H274.291V660.641H266.682V664.109H276.026V663.109H267.885V661.578H275.51V658.219H266.651V659.203ZM274.291 657.562H275.51V654.422H277.604V653.391H275.51V650.375H274.291V657.562ZM284.863 651.156C282.995 651.141 281.683 652.438 281.691 654.297C281.683 656.148 282.995 657.445 284.863 657.438C286.714 657.445 288.042 656.148 288.05 654.297C288.042 652.438 286.714 651.141 284.863 651.156ZM282.8 654.297C282.784 653.047 283.667 652.164 284.863 652.156C286.042 652.164 286.917 653.047 286.925 654.297C286.917 655.531 286.042 656.414 284.863 656.422C283.667 656.414 282.784 655.531 282.8 654.297ZM284.175 664.078H293.331V658.578H292.128V660.234H285.394V658.578H284.175V664.078ZM285.394 663.078V661.25H292.128V663.078H285.394ZM289.159 657.844H290.316V654.609H292.159V657.953H293.331V650.391H292.159V653.578H290.316V650.656H289.159V657.844ZM306.704 653V651.234H305.501V652.953C305.493 655.086 304.055 657.031 301.969 657.797L302.626 658.797C304.266 658.141 305.532 656.812 306.118 655.133C306.712 656.648 307.93 657.852 309.454 658.453L310.141 657.5C308.11 656.766 306.704 654.938 306.704 653ZM304.485 663.969H313.782V662.938H305.719V659.609H304.485V663.969ZM309.141 654.688H312.235V660.797H313.469V650.391H312.235V653.656H309.141V654.688ZM326.818 650.375H325.583V654H322.786V655.016H325.583V658.656H326.818V650.375ZM315.364 657.547L316.005 658.531C317.661 657.898 318.95 656.602 319.544 654.977C320.146 656.406 321.357 657.578 322.911 658.141L323.552 657.156C321.521 656.461 320.13 654.734 320.13 652.922V652.422H323.239V651.391H315.755V652.422H318.896V652.938C318.896 654.922 317.427 656.805 315.364 657.547ZM317.552 661.672C317.544 663.312 319.318 664.25 322.208 664.266C325.091 664.25 326.864 663.312 326.864 661.672C326.864 660.039 325.091 659.086 322.208 659.094C319.318 659.086 317.544 660.039 317.552 661.672ZM318.771 661.672C318.763 660.656 320.075 660.047 322.208 660.047C324.333 660.047 325.646 660.656 325.646 661.672C325.646 662.68 324.333 663.289 322.208 663.281C320.075 663.289 318.763 662.68 318.771 661.672Z" fill="black"/>
<path d="M108.938 454.094C109.828 454.094 110.547 453.375 110.547 452.484C110.547 451.609 109.828 450.891 108.938 450.891C108.062 450.891 107.344 451.609 107.344 452.484C107.344 453.375 108.062 454.094 108.938 454.094ZM132.547 445.281H123.156V446.297H131.328V446.5C131.328 447.797 131.328 449.25 130.906 451.25H121.562V452.266H127.25V458.297H128.484V452.266H134.219V451.25H132.148C132.547 449.258 132.547 447.812 132.547 446.5V445.281ZM145.958 444.984H136.52V445.984H144.739C144.747 446.898 144.731 448.031 144.411 449.578H134.911V450.562H147.629V449.578H145.645C145.958 448.016 145.958 446.812 145.958 445.875V444.984ZM136.426 452.953H144.786V454.5H136.442V458.109H146.364V457.109H137.676V455.469H146.004V451.969H136.426V452.953ZM152.806 445.156H151.571L147.931 458.703H149.149L152.806 445.156ZM156.279 445.547C154.474 445.555 153.302 447.422 153.294 450.375C153.302 453.328 154.474 455.211 156.279 455.203C158.083 455.211 159.271 453.328 159.279 450.375C159.271 447.422 158.083 445.555 156.279 445.547ZM154.451 450.375C154.435 448.117 155.154 446.703 156.279 446.703C157.412 446.703 158.13 448.117 158.123 450.375C158.13 452.625 157.412 454.047 156.279 454.031C155.154 454.047 154.435 452.625 154.451 450.375ZM160.732 457.562H161.904V450.906H163.841V458.266H165.029V444.375H163.841V449.891H161.904V444.672H160.732V457.562ZM177.924 444.812H167.658V445.781H169.799V448.469H167.705V449.422H177.877V448.469H175.783V445.781H177.924V444.812ZM166.471 451.578H179.127V450.594H166.471V451.578ZM168.002 453.75H176.299V454.953H168.033V458.109H177.924V457.172H169.252V455.844H177.502V452.828H168.002V453.75ZM171.018 448.469V445.781H174.564V448.469H171.018ZM186.683 445.156C184.815 445.141 183.503 446.438 183.511 448.297C183.503 450.148 184.815 451.445 186.683 451.438C188.534 451.445 189.862 450.148 189.87 448.297C189.862 446.438 188.534 445.141 186.683 445.156ZM184.62 448.297C184.604 447.047 185.487 446.164 186.683 446.156C187.862 446.164 188.737 447.047 188.745 448.297C188.737 449.531 187.862 450.414 186.683 450.422C185.487 450.414 184.604 449.531 184.62 448.297ZM185.995 458.078H195.151V452.578H193.948V454.234H187.214V452.578H185.995V458.078ZM187.214 457.078V455.25H193.948V457.078H187.214ZM190.979 451.844H192.136V448.609H193.979V451.953H195.151V444.391H193.979V447.578H192.136V444.656H190.979V451.844ZM203.624 446.422V445.359H202.343V446.422C202.335 448.812 199.64 450.914 197.234 451.375L197.796 452.406C199.898 451.914 202.093 450.43 202.999 448.391C203.898 450.43 206.101 451.922 208.202 452.406L208.765 451.375C206.351 450.922 203.632 448.805 203.624 446.422ZM196.702 456.375H209.421V455.359H196.702V456.375ZM221.301 451.609H212.941V449.516H220.848V448.516H212.941V446.531H221.144V445.516H211.691V452.609H215.769V455.516H210.051V456.531H222.769V455.516H216.988V452.609H221.301V451.609ZM227.133 445.453C225.078 445.461 223.641 447.344 223.649 450.297C223.641 453.258 225.078 455.133 227.133 455.125C229.071 455.133 230.461 453.43 230.594 450.703H233.696V458.297H234.914V444.375H233.696V449.688H230.578C230.391 447.086 229.024 445.461 227.133 445.453ZM224.821 450.297C224.828 448.039 225.766 446.555 227.133 446.547C228.493 446.555 229.446 448.039 229.446 450.297C229.446 452.555 228.493 454.039 227.133 454.031C225.766 454.039 224.828 452.555 224.821 450.297ZM251.439 445.781H241.611V446.797H250.236V447.328C250.228 449.062 250.228 450.891 249.736 453.344L250.939 453.484C251.431 450.898 251.431 449.109 251.439 447.328V445.781ZM240.283 456.297H252.939V455.281H248.095V450.703H246.892V455.281H244.642V450.703H243.423V455.281H240.283V456.297ZM266.287 451.078H253.631V452.078H256.99V453.844H255.037V454.828H263.49V458.266H264.724V453.844H262.912V452.078H266.287V451.078ZM255.037 447.359C255.037 449.031 256.935 450.031 259.959 450.016C262.967 450.031 264.857 449.031 264.865 447.359C264.857 445.695 262.967 444.703 259.959 444.719C256.935 444.703 255.037 445.695 255.037 447.359ZM256.303 447.359C256.295 446.328 257.709 445.688 259.959 445.703C262.185 445.688 263.607 446.328 263.615 447.359C263.607 448.414 262.185 449.055 259.959 449.062C257.709 449.055 256.295 448.414 256.303 447.359ZM258.224 453.844V452.078H261.709V453.844H258.224ZM283.217 452.625H270.499V453.625H276.217V458.266H277.421V453.625H283.217V452.625ZM272.124 450.938H281.577V444.953H280.342V446.875H273.342V444.953H272.124V450.938ZM273.342 449.938V447.875H280.342V449.938H273.342ZM296.566 451.484H283.847V452.5H289.691V455.344H290.909V452.5H296.566V451.484ZM285.472 457.969H295.144V456.938H286.706V453.969H285.472V457.969ZM285.503 449.891H294.909V445.062H285.503V449.891ZM286.706 448.906V446.031H293.691V448.906H286.706ZM305.246 445.688H303.824L301.012 447.562V448.984L303.762 447.156H303.824V457H305.246V445.688ZM311.86 445.062C309.782 445.047 308.298 446.195 308.298 447.891C308.298 449.586 309.782 450.742 311.86 450.734C313.938 450.742 315.43 449.586 315.423 447.891C315.43 446.195 313.938 445.047 311.86 445.062ZM307.251 451.922L307.423 452.969C308.579 452.961 309.915 452.953 311.329 452.891V457.844H312.548V452.82C313.891 452.734 315.266 452.586 316.594 452.344L316.516 451.422C313.43 451.875 309.86 451.93 307.251 451.922ZM309.501 447.891C309.485 446.812 310.477 446.047 311.86 446.062C313.258 446.047 314.258 446.812 314.251 447.891C314.258 448.977 313.258 449.727 311.86 449.719C310.477 449.727 309.485 448.977 309.501 447.891ZM317.532 458.281H318.735V444.391H317.532V458.281Z" fill="black"/>
<path d="M107.938 247.094C108.828 247.094 109.547 246.375 109.547 245.484C109.547 244.609 108.828 243.891 107.938 243.891C107.062 243.891 106.344 244.609 106.344 245.484C106.344 246.375 107.062 247.094 107.938 247.094ZM121.062 250H128.406V248.75H123.016V248.656L125.609 245.984C127.609 243.922 128.195 242.938 128.203 241.672C128.195 239.914 126.742 238.531 124.688 238.531C122.641 238.531 121.094 239.875 121.109 241.875H122.438C122.445 240.609 123.289 239.758 124.641 239.75C125.914 239.758 126.883 240.508 126.891 241.672C126.883 242.719 126.242 243.484 124.906 244.906L121.047 248.969L121.062 250ZM133.661 250.156C135.918 250.156 137.559 248.578 137.567 246.391C137.559 244.188 135.973 242.594 133.817 242.594C133.02 242.594 132.262 242.859 131.754 243.25H131.645L132.067 239.938H137.02V238.688H130.895L130.098 244.875H131.458C131.872 244.141 132.614 243.844 133.567 243.859C135.09 243.867 136.192 244.953 136.192 246.422C136.192 247.844 135.129 248.914 133.661 248.922C132.434 248.914 131.45 248.164 131.348 247.156H129.989C130.075 248.898 131.622 250.156 133.661 250.156ZM142.743 250.156C145.251 250.156 146.696 248.047 146.696 244.344C146.696 240.672 145.228 238.531 142.743 238.531C140.251 238.531 138.782 240.672 138.79 244.344C138.782 248.047 140.235 250.156 142.743 250.156ZM140.149 244.344C140.157 241.414 141.118 239.758 142.743 239.75C144.368 239.758 145.329 241.414 145.321 244.344C145.329 247.273 144.376 248.906 142.743 248.906C141.103 248.906 140.157 247.273 140.149 244.344ZM159.107 246.359H149.763V247.344H157.873V251.297H159.107V246.359ZM147.81 241.484C147.802 243.461 149.341 244.828 151.419 244.812C153.287 244.828 154.724 243.695 154.974 242H157.873V245.562H159.107V237.375H157.873V240.969H154.974C154.716 239.305 153.287 238.164 151.419 238.172C149.341 238.164 147.802 239.547 147.81 241.484ZM148.982 241.484C148.982 240.18 150.021 239.219 151.419 239.219C152.787 239.219 153.826 240.18 153.826 241.484C153.826 242.836 152.787 243.781 151.419 243.781C150.021 243.781 148.982 242.836 148.982 241.484ZM175.381 238.281H166.1V239.297H174.194V239.344C174.186 240.578 174.186 242.164 173.733 244.344H164.475V245.359H167.787V251.266H169.006V245.359H172.569V251.266H173.787V245.359H177.131V244.344H174.991C175.381 242.141 175.381 240.586 175.381 239.344V238.281ZM190.542 248.453H184.745V245.062H188.964V238.547H179.323V245.062H183.542V248.453H177.823V249.484H190.542V248.453ZM180.526 244.078V239.531H187.776V244.078H180.526ZM199.644 241.109V238.578H198.426V241.109C198.41 243.742 196.699 246.398 194.629 247.344L195.41 248.375C197.035 247.555 198.402 245.797 199.043 243.703C199.707 245.68 201.074 247.328 202.66 248.094L203.41 247.125C201.363 246.195 199.637 243.648 199.644 241.109ZM204.926 251.297H206.16V237.375H204.926V251.297ZM219.524 237.375H218.305V251.297H219.524V237.375ZM208.836 239.688H214.071V242.609H208.868V247.922H210.024C212.422 247.922 214.532 247.82 217.086 247.422L216.961 246.391C214.477 246.789 212.422 246.898 210.118 246.891V243.609H215.305V238.672H208.836V239.688ZM234.122 248.391H221.403V249.422H234.122V248.391ZM222.028 244.984L222.544 245.969C224.63 245.539 226.864 244.148 227.755 242.219C228.645 244.141 230.887 245.5 233.012 245.906L233.512 244.938C231.114 244.539 228.38 242.648 228.372 240.438V239.797H233.028V238.781H222.45V239.797H227.106V240.438C227.106 242.648 224.38 244.586 222.028 244.984ZM239.474 250L240.607 246.812H245.154L246.287 250H247.771L243.631 238.688H242.146L238.006 250H239.474ZM241.037 245.578L242.834 240.516H242.928L244.724 245.578H241.037ZM264.374 245.797H251.655V246.812H257.389V251.266H258.592V246.812H264.374V245.797ZM253.358 244.359H262.936V243.359H254.577V241.641H262.452V240.656H254.577V239.031H262.78V238.031H253.358V244.359ZM269.722 241.641V239.828H272.847V238.812H265.284V239.828H268.519V241.641C268.503 244.008 266.784 246.648 264.784 247.625L265.534 248.594C267.089 247.797 268.48 246 269.12 243.961C269.745 245.844 271.066 247.484 272.628 248.25L273.331 247.281C271.316 246.32 269.706 243.867 269.722 241.641ZM274.55 251.266H275.769V244.047H278.097V243H275.769V237.375H274.55V251.266ZM294.606 245.297H281.887V246.312H285.184V251.266H286.449V246.312H290.012V251.266H291.246V246.312H294.606V245.297ZM283.324 240.969C283.332 242.82 285.293 243.977 288.215 243.969C291.129 243.977 293.106 242.82 293.106 240.969C293.106 239.117 291.129 237.945 288.215 237.938C285.293 237.945 283.332 239.117 283.324 240.969ZM284.59 240.969C284.574 239.734 286.051 238.938 288.215 238.938C290.379 238.938 291.848 239.734 291.856 240.969C291.848 242.195 290.379 242.984 288.215 242.984C286.051 242.984 284.574 242.195 284.59 240.969ZM306.704 237.375H305.469V251.266H306.704V237.375ZM295.532 247.625L296.219 248.578C297.829 247.82 299.173 246.219 299.798 244.281C300.446 246.117 301.798 247.617 303.407 248.328L304.094 247.375C302.001 246.484 300.376 244.234 300.376 241.906V240.797H303.61V239.797H300.376V237.641H299.157V239.797H295.907V240.797H299.173V241.906C299.173 244.344 297.594 246.688 295.532 247.625ZM118.745 267.234C118.753 270.023 119.503 272.344 120.854 274.312H122.058C120.995 272.852 120.143 269.867 120.136 267.234C120.143 264.609 120.995 261.625 122.058 260.172H120.854C119.503 262.133 118.753 264.453 118.745 267.234ZM133.968 264.062H125.609V260.094H124.39V265.078H133.968V264.062ZM122.749 268.203H128.437V273.266H129.656V268.203H135.468V267.172H122.749V268.203ZM140.926 261.938V261.344H144.035V260.344H136.551V261.344H139.691V261.953C139.691 263.914 138.207 265.766 136.16 266.5L136.801 267.469C138.449 266.859 139.738 265.578 140.34 263.984C140.933 265.414 142.144 266.578 143.707 267.141L144.347 266.172C142.316 265.469 140.926 263.742 140.926 261.938ZM138.269 269.453H146.379V273.266H147.613V268.438H138.269V269.453ZM143.597 264.047H146.379V267.703H147.613V259.375H146.379V263.016H143.597V264.047ZM165.684 267.797H152.966V268.812H158.7V273.266H159.903V268.812H165.684V267.797ZM154.669 266.359H164.247V265.359H155.888V263.641H163.763V262.656H155.888V261.031H164.091V260.031H154.669V266.359ZM171.033 263.641V261.828H174.158V260.812H166.595V261.828H169.829V263.641C169.814 266.008 168.095 268.648 166.095 269.625L166.845 270.594C168.4 269.797 169.79 268 170.431 265.961C171.056 267.844 172.376 269.484 173.939 270.25L174.642 269.281C172.626 268.32 171.017 265.867 171.033 263.641ZM175.861 273.266H177.079V266.047H179.408V265H177.079V259.375H175.861V273.266ZM194.26 260.125H184.823V261.141H193.041V261.156C193.049 262.234 193.049 263.484 192.658 265.234H183.213V266.25H195.932V265.234H193.893C194.26 263.5 194.26 262.234 194.26 261.156V260.125ZM184.776 273.078H194.323V268.172H184.776V273.078ZM185.994 272.078V269.141H193.104V272.078H185.994ZM199.889 260.25C198.03 260.258 196.71 261.602 196.717 263.531C196.71 265.469 198.03 266.781 199.889 266.781C201.725 266.781 203.069 265.469 203.077 263.531C203.069 261.602 201.725 260.258 199.889 260.25ZM197.827 263.531C197.811 262.242 198.694 261.312 199.889 261.312C201.069 261.312 201.944 262.242 201.952 263.531C201.944 264.82 201.069 265.758 199.889 265.75C198.694 265.758 197.811 264.82 197.827 263.531ZM198.999 269.422H207.155V273.266H208.358V268.438H198.999V269.422ZM204.186 267.562H205.342V263.984H207.186V267.656H208.358V259.391H207.186V262.969H205.342V259.656H204.186V267.562ZM217.851 272.156C220.109 272.156 221.797 270.781 221.789 268.922C221.797 267.484 220.906 266.43 219.429 266.203V266.125C220.617 265.789 221.367 264.852 221.351 263.562C221.367 261.945 220.054 260.531 217.898 260.531C215.89 260.531 214.218 261.734 214.148 263.531H215.507C215.57 262.422 216.672 261.758 217.882 261.75C219.172 261.758 220 262.508 219.992 263.641C220 264.805 219.039 265.578 217.664 265.578H216.742V266.812H217.664C219.422 266.82 220.406 267.688 220.414 268.922C220.406 270.102 219.328 270.906 217.836 270.906C216.484 270.906 215.414 270.234 215.336 269.156H213.914C213.984 270.953 215.601 272.156 217.851 272.156ZM227.043 272.156C229.551 272.156 230.996 270.047 230.996 266.344C230.996 262.672 229.528 260.531 227.043 260.531C224.551 260.531 223.082 262.672 223.09 266.344C223.082 270.047 224.535 272.156 227.043 272.156ZM224.449 266.344C224.457 263.414 225.418 261.758 227.043 261.75C228.668 261.758 229.629 263.414 229.621 266.344C229.629 269.273 228.676 270.906 227.043 270.906C225.403 270.906 224.457 269.273 224.449 266.344ZM236.094 272.156C238.602 272.156 240.048 270.047 240.048 266.344C240.048 262.672 238.579 260.531 236.094 260.531C233.602 260.531 232.133 262.672 232.141 266.344C232.133 270.047 233.587 272.156 236.094 272.156ZM233.501 266.344C233.508 263.414 234.469 261.758 236.094 261.75C237.719 261.758 238.68 263.414 238.673 266.344C238.68 269.273 237.727 270.906 236.094 270.906C234.454 270.906 233.508 269.273 233.501 266.344ZM252.458 268.359H243.114V269.344H251.224V273.297H252.458V268.359ZM241.161 263.484C241.153 265.461 242.693 266.828 244.771 266.812C246.638 266.828 248.075 265.695 248.325 264H251.224V267.562H252.458V259.375H251.224V262.969H248.325C248.068 261.305 246.638 260.164 244.771 260.172C242.693 260.164 241.153 261.547 241.161 263.484ZM242.333 263.484C242.333 262.18 243.372 261.219 244.771 261.219C246.138 261.219 247.177 262.18 247.177 263.484C247.177 264.836 246.138 265.781 244.771 265.781C243.372 265.781 242.333 264.836 242.333 263.484ZM258.103 271.234H259.369V268.203H262.4V266.938H259.369V263.922H258.103V266.938H255.087V268.203H258.103V271.234ZM267.201 267.234C267.193 264.445 266.443 262.125 265.092 260.156H263.889C264.951 261.617 265.803 264.602 265.811 267.234C265.803 269.859 264.951 272.844 263.889 274.297H265.092C266.443 272.336 267.193 270.016 267.201 267.234Z" fill="black"/>
<path d="M107.938 98.0938C108.828 98.0938 109.547 97.375 109.547 96.4844C109.547 95.6094 108.828 94.8906 107.938 94.8906C107.062 94.8906 106.344 95.6094 106.344 96.4844C106.344 97.375 107.062 98.0938 107.938 98.0938ZM124.969 101.156C127.227 101.156 128.914 99.7812 128.906 97.9219C128.914 96.4844 128.023 95.4297 126.547 95.2031V95.125C127.734 94.7891 128.484 93.8516 128.469 92.5625C128.484 90.9453 127.172 89.5312 125.016 89.5312C123.008 89.5312 121.336 90.7344 121.266 92.5312H122.625C122.688 91.4219 123.789 90.7578 125 90.75C126.289 90.7578 127.117 91.5078 127.109 92.6406C127.117 93.8047 126.156 94.5781 124.781 94.5781H123.859V95.8125H124.781C126.539 95.8203 127.523 96.6875 127.531 97.9219C127.523 99.1016 126.445 99.9062 124.953 99.9062C123.602 99.9062 122.531 99.2344 122.453 98.1562H121.031C121.102 99.9531 122.719 101.156 124.969 101.156ZM134.239 101.156C136.598 101.156 138.254 99.8359 138.27 98C138.254 96.5391 137.239 95.3281 135.958 95.125V95.0625C137.067 94.8047 137.817 93.7656 137.833 92.5312C137.817 90.8047 136.301 89.5312 134.239 89.5312C132.168 89.5312 130.653 90.8047 130.661 92.5312C130.653 93.7656 131.395 94.8047 132.52 95.0625V95.125C131.231 95.3281 130.215 96.5391 130.223 98C130.215 99.8359 131.856 101.156 134.239 101.156ZM131.629 97.9219C131.606 96.6719 132.723 95.75 134.239 95.75C135.762 95.75 136.864 96.6719 136.864 97.9219C136.864 99.1094 135.856 99.9141 134.239 99.9219C132.614 99.9141 131.606 99.1094 131.629 97.9219ZM132.02 92.6406C132.028 91.5078 132.895 90.7422 134.239 90.75C135.559 90.7422 136.458 91.5078 136.458 92.6406C136.458 93.7812 135.528 94.5547 134.239 94.5625C132.942 94.5547 132.028 93.7812 132.02 92.6406ZM143.384 101.156C145.892 101.156 147.337 99.0469 147.337 95.3438C147.337 91.6719 145.868 89.5312 143.384 89.5312C140.892 89.5312 139.423 91.6719 139.431 95.3438C139.423 99.0469 140.876 101.156 143.384 101.156ZM140.79 95.3438C140.798 92.4141 141.759 90.7578 143.384 90.75C145.009 90.7578 145.97 92.4141 145.962 95.3438C145.97 98.2734 145.017 99.9062 143.384 99.9062C141.743 99.9062 140.798 98.2734 140.79 95.3438ZM159.748 97.3594H150.404V98.3438H158.513V102.297H159.748V97.3594ZM148.451 92.4844C148.443 94.4609 149.982 95.8281 152.06 95.8125C153.927 95.8281 155.365 94.6953 155.615 93H158.513V96.5625H159.748V88.375H158.513V91.9688H155.615C155.357 90.3047 153.927 89.1641 152.06 89.1719C149.982 89.1641 148.443 90.5469 148.451 92.4844ZM149.623 92.4844C149.623 91.1797 150.662 90.2188 152.06 90.2188C153.427 90.2188 154.466 91.1797 154.466 92.4844C154.466 93.8359 153.427 94.7812 152.06 94.7812C150.662 94.7812 149.623 93.8359 149.623 92.4844ZM176.022 89.2812H166.741V90.2969H174.834V90.3438C174.827 91.5781 174.827 93.1641 174.373 95.3438H165.116V96.3594H168.428V102.266H169.647V96.3594H173.209V102.266H174.428V96.3594H177.772V95.3438H175.631C176.022 93.1406 176.022 91.5859 176.022 90.3438V89.2812ZM191.183 99.4531H185.386V96.0625H189.604V89.5469H179.964V96.0625H184.183V99.4531H178.464V100.484H191.183V99.4531ZM181.167 95.0781V90.5312H188.417V95.0781H181.167ZM200.285 92.1094V89.5781H199.066V92.1094C199.051 94.7422 197.34 97.3984 195.269 98.3438L196.051 99.375C197.676 98.5547 199.043 96.7969 199.683 94.7031C200.348 96.6797 201.715 98.3281 203.301 99.0938L204.051 98.125C202.004 97.1953 200.277 94.6484 200.285 92.1094ZM205.566 102.297H206.801V88.375H205.566V102.297ZM220.164 88.375H218.946V102.297H220.164V88.375ZM209.477 90.6875H214.711V93.6094H209.508V98.9219H210.664C213.063 98.9219 215.172 98.8203 217.727 98.4219L217.602 97.3906C215.118 97.7891 213.063 97.8984 210.758 97.8906V94.6094H215.946V89.6719H209.477V90.6875ZM234.762 99.3906H222.044V100.422H234.762V99.3906ZM222.669 95.9844L223.184 96.9688C225.27 96.5391 227.505 95.1484 228.395 93.2188C229.286 95.1406 231.528 96.5 233.653 96.9062L234.153 95.9375C231.755 95.5391 229.02 93.6484 229.012 91.4375V90.7969H233.669V89.7812H223.091V90.7969H227.747V91.4375C227.747 93.6484 225.02 95.5859 222.669 95.9844ZM239.615 101H243.724C246.396 101 247.513 99.6953 247.521 98C247.513 96.2031 246.279 95.2344 245.224 95.1719V95.0625C246.209 94.7891 247.076 94.1406 247.068 92.6875C247.076 91.0234 245.959 89.6875 243.584 89.6875H239.615V101ZM241.021 99.75V95.8594H243.787C245.24 95.8594 246.17 96.8359 246.162 97.9844C246.17 98.9688 245.482 99.75 243.709 99.75H241.021ZM241.021 94.6406V90.9375H243.584C245.06 90.9375 245.724 91.7188 245.724 92.7031C245.724 93.8828 244.763 94.6484 243.537 94.6406H241.021ZM264.592 96.7969H251.874V97.8125H257.608V102.266H258.811V97.8125H264.592V96.7969ZM253.577 95.3594H263.155V94.3594H254.796V92.6406H262.671V91.6562H254.796V90.0312H262.999V89.0312H253.577V95.3594ZM269.941 92.6406V90.8281H273.066V89.8125H265.503V90.8281H268.738V92.6406C268.722 95.0078 267.003 97.6484 265.003 98.625L265.753 99.5938C267.308 98.7969 268.698 97 269.339 94.9609C269.964 96.8438 271.284 98.4844 272.847 99.25L273.55 98.2812C271.534 97.3203 269.925 94.8672 269.941 92.6406ZM274.769 102.266H275.988V95.0469H278.316V94H275.988V88.375H274.769V102.266ZM294.824 96.2969H282.106V97.3125H285.402V102.266H286.668V97.3125H290.231V102.266H291.465V97.3125H294.824V96.2969ZM283.543 91.9688C283.551 93.8203 285.512 94.9766 288.434 94.9688C291.348 94.9766 293.324 93.8203 293.324 91.9688C293.324 90.1172 291.348 88.9453 288.434 88.9375C285.512 88.9453 283.551 90.1172 283.543 91.9688ZM284.809 91.9688C284.793 90.7344 286.27 89.9375 288.434 89.9375C290.598 89.9375 292.067 90.7344 292.074 91.9688C292.067 93.1953 290.598 93.9844 288.434 93.9844C286.27 93.9844 284.793 93.1953 284.809 91.9688ZM306.923 88.375H305.688V102.266H306.923V88.375ZM295.751 98.625L296.438 99.5781C298.048 98.8203 299.391 97.2188 300.016 95.2812C300.665 97.1172 302.016 98.6172 303.626 99.3281L304.313 98.375C302.219 97.4844 300.594 95.2344 300.594 92.9062V91.7969H303.829V90.7969H300.594V88.6406H299.376V90.7969H296.126V91.7969H299.391V92.9062C299.391 95.3438 297.813 97.6875 295.751 98.625ZM118.745 118.234C118.753 121.023 119.503 123.344 120.854 125.312H122.058C120.995 123.852 120.143 120.867 120.136 118.234C120.143 115.609 120.995 112.625 122.058 111.172H120.854C119.503 113.133 118.753 115.453 118.745 118.234ZM133.968 115.062H125.609V111.094H124.39V116.078H133.968V115.062ZM122.749 119.203H128.437V124.266H129.656V119.203H135.468V118.172H122.749V119.203ZM140.926 112.938V112.344H144.035V111.344H136.551V112.344H139.691V112.953C139.691 114.914 138.207 116.766 136.16 117.5L136.801 118.469C138.449 117.859 139.738 116.578 140.34 114.984C140.933 116.414 142.144 117.578 143.707 118.141L144.347 117.172C142.316 116.469 140.926 114.742 140.926 112.938ZM138.269 120.453H146.379V124.266H147.613V119.438H138.269V120.453ZM143.597 115.047H146.379V118.703H147.613V110.375H146.379V114.016H143.597V115.047ZM165.684 118.797H152.966V119.812H158.7V124.266H159.903V119.812H165.684V118.797ZM154.669 117.359H164.247V116.359H155.888V114.641H163.763V113.656H155.888V112.031H164.091V111.031H154.669V117.359ZM171.033 114.641V112.828H174.158V111.812H166.595V112.828H169.829V114.641C169.814 117.008 168.095 119.648 166.095 120.625L166.845 121.594C168.4 120.797 169.79 119 170.431 116.961C171.056 118.844 172.376 120.484 173.939 121.25L174.642 120.281C172.626 119.32 171.017 116.867 171.033 114.641ZM175.861 124.266H177.079V117.047H179.408V116H177.079V110.375H175.861V124.266ZM194.26 111.125H184.823V112.141H193.041V112.156C193.049 113.234 193.049 114.484 192.658 116.234H183.213V117.25H195.932V116.234H193.893C194.26 114.5 194.26 113.234 194.26 112.156V111.125ZM184.776 124.078H194.323V119.172H184.776V124.078ZM185.994 123.078V120.141H193.104V123.078H185.994ZM199.889 111.25C198.03 111.258 196.71 112.602 196.717 114.531C196.71 116.469 198.03 117.781 199.889 117.781C201.725 117.781 203.069 116.469 203.077 114.531C203.069 112.602 201.725 111.258 199.889 111.25ZM197.827 114.531C197.811 113.242 198.694 112.312 199.889 112.312C201.069 112.312 201.944 113.242 201.952 114.531C201.944 115.82 201.069 116.758 199.889 116.75C198.694 116.758 197.811 115.82 197.827 114.531ZM198.999 120.422H207.155V124.266H208.358V119.438H198.999V120.422ZM204.186 118.562H205.342V114.984H207.186V118.656H208.358V110.391H207.186V113.969H205.342V110.656H204.186V118.562ZM217.882 123.156C220.265 123.18 221.82 121.477 221.82 119.344C221.82 117.156 220.14 115.594 218.132 115.594C216.914 115.594 215.875 116.148 215.226 117.094H215.086C215.078 114.367 216.195 112.781 218.054 112.781C219.312 112.781 220.078 113.531 220.336 114.531H221.726C221.437 112.758 220.047 111.531 218.054 111.531C215.398 111.531 213.757 113.773 213.757 117.781C213.757 121.969 215.922 123.133 217.882 123.156ZM215.273 119.375C215.289 118.039 216.429 116.836 217.914 116.828C219.39 116.836 220.453 117.969 220.461 119.359C220.453 120.766 219.343 121.914 217.882 121.922C216.367 121.914 215.281 120.703 215.273 119.375ZM226.981 123.156C229.488 123.156 230.934 121.047 230.934 117.344C230.934 113.672 229.465 111.531 226.981 111.531C224.488 111.531 223.02 113.672 223.028 117.344C223.02 121.047 224.473 123.156 226.981 123.156ZM224.387 117.344C224.395 114.414 225.356 112.758 226.981 112.75C228.606 112.758 229.567 114.414 229.559 117.344C229.567 120.273 228.613 121.906 226.981 121.906C225.34 121.906 224.395 120.273 224.387 117.344ZM236.032 123.156C238.54 123.156 239.985 121.047 239.985 117.344C239.985 113.672 238.516 111.531 236.032 111.531C233.54 111.531 232.071 113.672 232.079 117.344C232.071 121.047 233.524 123.156 236.032 123.156ZM233.438 117.344C233.446 114.414 234.407 112.758 236.032 112.75C237.657 112.758 238.618 114.414 238.61 117.344C238.618 120.273 237.665 121.906 236.032 121.906C234.391 121.906 233.446 120.273 233.438 117.344ZM252.396 119.359H243.052V120.344H251.161V124.297H252.396V119.359ZM241.099 114.484C241.091 116.461 242.63 117.828 244.708 117.812C246.575 117.828 248.013 116.695 248.263 115H251.161V118.562H252.396V110.375H251.161V113.969H248.263C248.005 112.305 246.575 111.164 244.708 111.172C242.63 111.164 241.091 112.547 241.099 114.484ZM242.271 114.484C242.271 113.18 243.31 112.219 244.708 112.219C246.075 112.219 247.114 113.18 247.114 114.484C247.114 115.836 246.075 116.781 244.708 116.781C243.31 116.781 242.271 115.836 242.271 114.484ZM258.041 122.234H259.306V119.203H262.337V117.938H259.306V114.922H258.041V117.938H255.025V119.203H258.041V122.234ZM267.139 118.234C267.131 115.445 266.381 113.125 265.029 111.156H263.826C264.889 112.617 265.74 115.602 265.748 118.234C265.74 120.859 264.889 123.844 263.826 125.297H265.029C266.381 123.336 267.131 121.016 267.139 118.234Z" fill="black"/>
<path d="M107.938 153.094C108.828 153.094 109.547 152.375 109.547 151.484C109.547 150.609 108.828 149.891 107.938 149.891C107.062 149.891 106.344 150.609 106.344 151.484C106.344 152.375 107.062 153.094 107.938 153.094ZM130.812 150.344C130.82 146.766 128.711 144.531 125.812 144.531C122.906 144.531 120.805 146.766 120.812 150.344C120.805 153.922 122.906 156.156 125.812 156.156C128.711 156.156 130.82 153.922 130.812 150.344ZM122.172 150.344C122.18 147.422 123.766 145.844 125.812 145.844C127.859 145.844 129.445 147.422 129.453 150.344C129.445 153.258 127.859 154.836 125.812 154.844C123.766 154.836 122.18 153.258 122.172 150.344ZM132.223 159.188H133.567V154.703H133.676C133.965 155.172 134.528 156.18 136.145 156.172C138.262 156.18 139.739 154.477 139.739 151.781C139.739 149.094 138.262 147.406 136.129 147.406C134.481 147.406 133.965 148.406 133.676 148.859H133.52V147.516H132.223V159.188ZM133.536 151.75C133.543 149.867 134.372 148.609 135.958 148.609C137.59 148.609 138.395 149.977 138.395 151.75C138.395 153.555 137.567 154.969 135.958 154.969C134.395 154.969 133.543 153.656 133.536 151.75ZM144.571 156.172C146.321 156.18 147.579 155.305 147.978 154.016H146.54C146.228 154.539 145.587 154.984 144.571 154.984C143.063 154.984 142.017 154 141.946 152.203H148.103V151.641C148.11 148.5 146.228 147.406 144.446 147.406C142.142 147.406 140.603 149.219 140.603 151.828C140.603 154.43 142.118 156.18 144.571 156.172ZM141.954 151.062C142.048 149.75 142.978 148.594 144.446 148.594C145.845 148.594 146.735 149.648 146.743 151.062H141.954ZM150.716 150.906C150.716 149.438 151.623 148.609 152.857 148.609C154.06 148.609 154.779 149.391 154.779 150.703V156H156.123V150.609C156.13 148.453 154.982 147.406 153.263 147.406C151.974 147.406 151.177 147.977 150.779 148.844H150.669V147.516H149.373V156H150.716V150.906ZM158.471 156L159.603 152.812H164.15L165.283 156H166.768L162.627 144.688H161.143L157.002 156H158.471ZM160.033 151.578L161.83 146.516H161.924L163.721 151.578H160.033ZM169.225 144.688H167.819V156H169.225V144.688ZM178.281 144.281C176.109 144.297 174.57 145.609 174.577 147.547C174.57 149.297 175.827 150.539 177.671 150.758V153.164C176.327 153.203 175.038 153.211 173.921 153.219L174.124 154.25C176.57 154.266 179.851 154.234 182.796 153.734L182.718 152.812C181.507 152.969 180.202 153.062 178.906 153.117V150.758C180.71 150.523 181.976 149.289 181.984 147.547C181.976 145.609 180.413 144.297 178.281 144.281ZM175.781 147.547C175.765 146.242 176.82 145.352 178.281 145.344C179.718 145.352 180.765 146.242 180.781 147.547C180.765 148.852 179.718 149.758 178.281 149.75C176.82 149.758 175.765 148.852 175.781 147.547ZM183.609 157.266H184.827V150.172H187.093V149.109H184.827V143.375H183.609V157.266ZM202.461 143.375H201.227V157.266H202.461V143.375ZM191.149 153.656L191.821 154.656C196.477 152.422 198.336 148.883 198.352 144.891H191.789V145.891H197.102C196.828 149.211 194.907 151.875 191.149 153.656ZM211.294 143.984V143.453H210.028V143.984C210.028 145.711 207.52 147.039 205.028 147.344L205.45 148.281C207.614 147.984 209.762 147.008 210.653 145.508C211.528 147.008 213.669 147.984 215.856 148.281L216.294 147.344C213.794 147.039 211.286 145.711 211.294 143.984ZM204.325 150.188H210.028V151.578H205.856V152.547H214.153V153.812H205.887V157.109H215.778V156.141H207.106V154.734H215.356V151.578H211.247V150.188H216.981V149.188H204.325V150.188ZM222.501 145.938V145.344H225.611V144.344H218.126V145.344H221.267V145.953C221.267 147.914 219.783 149.766 217.736 150.5L218.376 151.469C220.025 150.859 221.314 149.578 221.915 147.984C222.509 149.414 223.72 150.578 225.283 151.141L225.923 150.172C223.892 149.469 222.501 147.742 222.501 145.938ZM219.845 153.453H227.954V157.266H229.189V152.438H219.845V153.453ZM225.173 148.047H227.954V151.703H229.189V143.375H227.954V147.016H225.173V148.047ZM242.541 144.891H234.729V145.906H236.26V152.766C235.596 152.773 234.971 152.781 234.385 152.781L234.541 153.828C237.002 153.812 240.322 153.766 243.26 153.297L243.197 152.391C242.487 152.477 241.744 152.547 240.994 152.594V145.906H242.541V144.891ZM237.447 152.75V145.906H239.822V152.664C239.026 152.703 238.221 152.734 237.447 152.75ZM244.088 157.266H245.307V149.984H247.635V148.953H245.307V143.375H244.088V157.266ZM259.155 150.891H250.796V148.656H258.702V147.672H250.796V145.609H258.999V144.578H249.546V151.891H259.155V150.891ZM247.905 155.453H260.624V154.438H247.905V155.453ZM272.784 143.375H271.55V147.969H267.222V148.984H271.55V157.297H272.784V143.375ZM262.019 153.922H263.081C265.331 153.922 267.284 153.805 269.503 153.344L269.347 152.328C267.261 152.758 265.378 152.867 263.253 152.891V144.938H262.019V153.922ZM279.523 145.156V143.844H278.273V145.156C278.273 147.164 276.789 148.992 274.695 149.719L275.32 150.703C276.976 150.109 278.289 148.836 278.914 147.234C279.547 148.719 280.843 149.875 282.476 150.438L283.07 149.484C281.008 148.805 279.508 147.07 279.523 145.156ZM277.07 157.078H286.07V151.531H284.851V153.219H278.289V151.531H277.07V157.078ZM278.289 156.078V154.203H284.851V156.078H278.289ZM284.851 150.828H286.07V143.375H284.851V150.828ZM295.548 147.656V146.969H298.157V145.953H295.563V143.891H294.391V145.953H291.751V146.969H294.391V147.656C294.383 149.953 293.266 152.391 291.376 153.484L292.11 154.422C293.501 153.586 294.493 152.023 294.985 150.242C295.493 151.914 296.493 153.352 297.876 154.109L298.579 153.188C296.688 152.18 295.555 149.891 295.548 147.656ZM297.204 149.906H299.391V156.547H300.548V143.719H299.391V148.859H297.204V149.906ZM302.188 157.266H303.36V143.375H302.188V157.266ZM316.349 143.375H315.114V145.406H311.903C311.989 144.984 312.036 144.539 312.036 144.078H305.771V145.094H310.685C310.45 147.336 308.474 148.992 305.068 149.781L305.505 150.797C308.591 150.055 310.747 148.578 311.614 146.391H315.114V148.062H311.411V149.031H315.114V150.484H316.349V143.375ZM307.349 152.109H315.114V153.562H307.38V157.141H316.818V156.125H308.599V154.5H316.349V151.109H307.349V152.109Z" fill="black"/>
<path d="M109.938 561.094C110.828 561.094 111.547 560.375 111.547 559.484C111.547 558.609 110.828 557.891 109.938 557.891C109.062 557.891 108.344 558.609 108.344 559.484C108.344 560.375 109.062 561.094 109.938 561.094ZM125.719 552.547C123.914 552.555 122.742 554.422 122.734 557.375C122.742 560.328 123.914 562.211 125.719 562.203C127.523 562.211 128.711 560.328 128.719 557.375C128.711 554.422 127.523 552.555 125.719 552.547ZM123.891 557.375C123.875 555.117 124.594 553.703 125.719 553.703C126.852 553.703 127.57 555.117 127.562 557.375C127.57 559.625 126.852 561.047 125.719 561.031C124.594 561.047 123.875 559.625 123.891 557.375ZM130.172 564.562H131.344V557.906H133.281V565.266H134.469V551.375H133.281V556.891H131.344V551.672H130.172V564.562ZM147.364 551.812H137.098V552.781H139.239V555.469H137.145V556.422H147.317V555.469H145.223V552.781H147.364V551.812ZM135.911 558.578H148.567V557.594H135.911V558.578ZM137.442 560.75H145.739V561.953H137.473V565.109H147.364V564.172H138.692V562.844H146.942V559.828H137.442V560.75ZM140.458 555.469V552.781H144.004V555.469H140.458ZM156.123 552.156C154.255 552.141 152.943 553.438 152.951 555.297C152.943 557.148 154.255 558.445 156.123 558.438C157.974 558.445 159.302 557.148 159.31 555.297C159.302 553.438 157.974 552.141 156.123 552.156ZM154.06 555.297C154.044 554.047 154.927 553.164 156.123 553.156C157.302 553.164 158.177 554.047 158.185 555.297C158.177 556.531 157.302 557.414 156.123 557.422C154.927 557.414 154.044 556.531 154.06 555.297ZM155.435 565.078H164.591V559.578H163.388V561.234H156.654V559.578H155.435V565.078ZM156.654 564.078V562.25H163.388V564.078H156.654ZM160.419 558.844H161.576V555.609H163.419V558.953H164.591V551.391H163.419V554.578H161.576V551.656H160.419V558.844ZM173.064 553.422V552.359H171.783V553.422C171.775 555.812 169.08 557.914 166.674 558.375L167.236 559.406C169.338 558.914 171.533 557.43 172.439 555.391C173.338 557.43 175.541 558.922 177.643 559.406L178.205 558.375C175.791 557.922 173.072 555.805 173.064 553.422ZM166.143 563.375H178.861V562.359H166.143V563.375ZM190.741 558.609H182.381V556.516H190.287V555.516H182.381V553.531H190.584V552.516H181.131V559.609H185.209V562.516H179.491V563.531H192.209V562.516H186.428V559.609H190.741V558.609ZM196.573 552.453C194.518 552.461 193.081 554.344 193.089 557.297C193.081 560.258 194.518 562.133 196.573 562.125C198.511 562.133 199.901 560.43 200.034 557.703H203.136V565.297H204.354V551.375H203.136V556.688H200.018C199.831 554.086 198.464 552.461 196.573 552.453ZM194.261 557.297C194.268 555.039 195.206 553.555 196.573 553.547C197.933 553.555 198.886 555.039 198.886 557.297C198.886 559.555 197.933 561.039 196.573 561.031C195.206 561.039 194.268 559.555 194.261 557.297ZM220.879 552.781H211.051V553.797H219.676V554.328C219.668 556.062 219.668 557.891 219.176 560.344L220.379 560.484C220.871 557.898 220.871 556.109 220.879 554.328V552.781ZM209.723 563.297H222.379V562.281H217.535V557.703H216.332V562.281H214.082V557.703H212.863V562.281H209.723V563.297ZM235.727 558.078H223.071V559.078H226.43V560.844H224.477V561.828H232.93V565.266H234.164V560.844H232.352V559.078H235.727V558.078ZM224.477 554.359C224.477 556.031 226.375 557.031 229.399 557.016C232.407 557.031 234.297 556.031 234.305 554.359C234.297 552.695 232.407 551.703 229.399 551.719C226.375 551.703 224.477 552.695 224.477 554.359ZM225.743 554.359C225.735 553.328 227.149 552.688 229.399 552.703C231.625 552.688 233.047 553.328 233.055 554.359C233.047 555.414 231.625 556.055 229.399 556.062C227.149 556.055 225.735 555.414 225.743 554.359ZM227.664 560.844V559.078H231.149V560.844H227.664ZM251.861 551.375H250.673V556.891H248.736V551.672H247.564V564.562H248.736V557.906H250.673V565.266H251.861V551.375ZM240.47 561.531H245.783V553H240.47V561.531ZM241.626 560.547V553.984H244.626V560.547H241.626ZM265.959 557.562H253.318V558.516H259.021V559.812H254.834V560.734H263.131V561.938H254.865V565.109H264.756V564.172H256.084V562.812H264.334V559.812H260.224V558.516H265.959V557.562ZM253.99 555.984L254.349 556.922C256.678 556.727 258.771 556.008 259.631 554.688C260.482 556.008 262.576 556.727 264.896 556.922L265.271 555.984C262.709 555.82 260.537 554.953 260.318 553.562H264.678V552.594H260.224V551.297H259.021V552.594H254.615V553.562H258.935C258.709 554.953 256.537 555.82 253.99 555.984ZM273.514 552.156C271.647 552.141 270.335 553.438 270.342 555.297C270.335 557.148 271.647 558.445 273.514 558.438C275.366 558.445 276.694 557.148 276.702 555.297C276.694 553.438 275.366 552.141 273.514 552.156ZM271.452 555.297C271.436 554.047 272.319 553.164 273.514 553.156C274.694 553.164 275.569 554.047 275.577 555.297C275.569 556.531 274.694 557.414 273.514 557.422C272.319 557.414 271.436 556.531 271.452 555.297ZM272.827 565.078H281.983V559.578H280.78V561.234H274.046V559.578H272.827V565.078ZM274.046 564.078V562.25H280.78V564.078H274.046ZM277.811 558.844H278.967V555.609H280.811V558.953H281.983V551.391H280.811V554.578H278.967V551.656H277.811V558.844ZM291.57 552.688H290.148L287.336 554.562V555.984L290.086 554.156H290.148V564H291.57V552.688ZM298.184 552.062C296.106 552.047 294.621 553.195 294.621 554.891C294.621 556.586 296.106 557.742 298.184 557.734C300.262 557.742 301.754 556.586 301.746 554.891C301.754 553.195 300.262 552.047 298.184 552.062ZM293.574 558.922L293.746 559.969C294.902 559.961 296.238 559.953 297.652 559.891V564.844H298.871V559.82C300.215 559.734 301.59 559.586 302.918 559.344L302.84 558.422C299.754 558.875 296.184 558.93 293.574 558.922ZM295.824 554.891C295.809 553.812 296.801 553.047 298.184 553.062C299.582 553.047 300.582 553.812 300.574 554.891C300.582 555.977 299.582 556.727 298.184 556.719C296.801 556.727 295.809 555.977 295.824 554.891ZM303.856 565.281H305.059V551.391H303.856V565.281Z" fill="black"/>
<path d="M107.938 360.094C108.828 360.094 109.547 359.375 109.547 358.484C109.547 357.609 108.828 356.891 107.938 356.891C107.062 356.891 106.344 357.609 106.344 358.484C106.344 359.375 107.062 360.094 107.938 360.094ZM127.484 352.422V351.359H126.203V352.422C126.195 354.812 123.5 356.914 121.094 357.375L121.656 358.406C123.758 357.914 125.953 356.43 126.859 354.391C127.758 356.43 129.961 357.922 132.062 358.406L132.625 357.375C130.211 356.922 127.492 354.805 127.484 352.422ZM120.562 362.375H133.281V361.359H120.562V362.375ZM142.051 351.516H134.536V352.531H135.926V356.883C135.301 356.891 134.7 356.891 134.145 356.891L134.301 357.938C136.708 357.938 139.981 357.898 142.833 357.469L142.739 356.547C142.067 356.625 141.364 356.68 140.645 356.727V352.531H142.051V351.516ZM136.036 360.5H144.161V364.266H145.379V359.484H136.036V360.5ZM137.114 356.867V352.531H139.458V356.789C138.668 356.828 137.879 356.852 137.114 356.867ZM144.161 358.812H145.379V350.375H144.161V358.812ZM154.123 351.156C152.255 351.141 150.943 352.438 150.951 354.297C150.943 356.148 152.255 357.445 154.123 357.438C155.974 357.445 157.302 356.148 157.31 354.297C157.302 352.438 155.974 351.141 154.123 351.156ZM152.06 354.297C152.044 353.047 152.927 352.164 154.123 352.156C155.302 352.164 156.177 353.047 156.185 354.297C156.177 355.531 155.302 356.414 154.123 356.422C152.927 356.414 152.044 355.531 152.06 354.297ZM153.435 364.078H162.591V358.578H161.388V360.234H154.654V358.578H153.435V364.078ZM154.654 363.078V361.25H161.388V363.078H154.654ZM158.419 357.844H159.576V354.609H161.419V357.953H162.591V350.391H161.419V353.578H159.576V350.656H158.419V357.844ZM168.178 363H175.522V361.75H170.131V361.656L172.725 358.984C174.725 356.922 175.311 355.938 175.319 354.672C175.311 352.914 173.858 351.531 171.803 351.531C169.756 351.531 168.209 352.875 168.225 354.875H169.553C169.561 353.609 170.405 352.758 171.756 352.75C173.03 352.758 173.998 353.508 174.006 354.672C173.998 355.719 173.358 356.484 172.022 357.906L168.162 361.969L168.178 363ZM180.792 363.156C183.3 363.156 184.745 361.047 184.745 357.344C184.745 353.672 183.276 351.531 180.792 351.531C178.3 351.531 176.831 353.672 176.839 357.344C176.831 361.047 178.284 363.156 180.792 363.156ZM178.198 357.344C178.206 354.414 179.167 352.758 180.792 352.75C182.417 352.758 183.378 354.414 183.37 357.344C183.378 360.273 182.425 361.906 180.792 361.906C179.151 361.906 178.206 360.273 178.198 357.344ZM189.843 363.156C192.351 363.156 193.796 361.047 193.796 357.344C193.796 353.672 192.327 351.531 189.843 351.531C187.351 351.531 185.882 353.672 185.89 357.344C185.882 361.047 187.335 363.156 189.843 363.156ZM187.249 357.344C187.257 354.414 188.218 352.758 189.843 352.75C191.468 352.758 192.429 354.414 192.421 357.344C192.429 360.273 191.476 361.906 189.843 361.906C188.202 361.906 187.257 360.273 187.249 357.344ZM201.707 351.641H195.285V358.031H201.707V351.641ZM196.488 357.047V352.641H200.519V357.047H196.488ZM196.863 363.969H206.191V362.938H198.066V359.594H196.863V363.969ZM204.332 360.562H205.551V355.641H207.644V354.609H205.551V350.375H204.332V360.562ZM222.325 350.375H221.106V364.297H222.325V356.906H224.653V355.875H222.325V350.375ZM212.184 360.812H213.278C215.919 360.812 217.739 360.734 219.919 360.344L219.762 359.281C217.692 359.664 215.919 359.773 213.403 359.781V352.75H218.669V351.734H212.184V360.812ZM237.626 357.438H224.908V358.453H230.751V361.297H231.986V358.453H237.626V357.438ZM226.345 353.531C226.337 355.242 228.283 356.305 231.251 356.297C234.22 356.305 236.142 355.242 236.142 353.531C236.142 351.805 234.22 350.742 231.251 350.734C228.283 350.742 226.337 351.805 226.345 353.531ZM226.548 363.969H236.204V362.922H227.783V359.906H226.548V363.969ZM227.658 353.531C227.642 352.422 229.087 351.742 231.251 351.734C233.408 351.742 234.845 352.422 234.845 353.531C234.845 354.609 233.408 355.297 231.251 355.297C229.087 355.297 227.642 354.609 227.658 353.531ZM250.99 361.516H245.193V358.891H249.709V357.875H241.084V355.609H249.381V351.406H239.834V352.422H248.178V354.609H239.865V358.891H243.99V361.516H238.271V362.547H250.99V361.516ZM262.838 357.062H254.463V352.688H262.697V351.672H253.244V358.078H262.838V357.062ZM251.619 362.375H264.338V361.344H251.619V362.375ZM275.316 351.188H269.144V356.844H270.222C273.081 356.859 274.777 356.781 276.769 356.359L276.613 355.375C274.714 355.758 273.073 355.859 270.347 355.844V352.188H275.316V351.188ZM270.503 359.078H278.144V360.531H270.534V364.078H279.878V363.078H271.738V361.5H279.363V358.078H270.503V359.078ZM278.144 357.391H279.363V354.344H281.456V353.328H279.363V350.375H278.144V357.391ZM286.633 352.562V351.172H285.414V352.609C285.398 354.766 283.976 356.609 281.836 357.359L282.508 358.359C284.187 357.727 285.453 356.438 286.047 354.773C286.648 356.234 287.851 357.367 289.383 357.938L290.07 356.984C288.031 356.289 286.617 354.547 286.633 352.562ZM284.101 361.641C284.093 363.297 285.867 364.234 288.758 364.234C291.64 364.234 293.414 363.297 293.414 361.641C293.414 359.969 291.64 359.008 288.758 359.016C285.867 359.008 284.093 359.969 284.101 361.641ZM285.32 361.641C285.312 360.602 286.625 359.984 288.758 359.984C290.883 359.984 292.195 360.602 292.195 361.641C292.195 362.648 290.883 363.258 288.758 363.25C286.625 363.258 285.312 362.648 285.32 361.641ZM289.039 354.375H292.133V358.609H293.367V350.375H292.133V353.359H289.039V354.375Z" fill="black"/>
<path d="M107.938 835.094C108.828 835.094 109.547 834.375 109.547 833.484C109.547 832.609 108.828 831.891 107.938 831.891C107.062 831.891 106.344 832.609 106.344 833.484C106.344 834.375 107.062 835.094 107.938 835.094ZM127.484 827.422V826.359H126.203V827.422C126.195 829.812 123.5 831.914 121.094 832.375L121.656 833.406C123.758 832.914 125.953 831.43 126.859 829.391C127.758 831.43 129.961 832.922 132.062 833.406L132.625 832.375C130.211 831.922 127.492 829.805 127.484 827.422ZM120.562 837.375H133.281V836.359H120.562V837.375ZM142.051 826.516H134.536V827.531H135.926V831.883C135.301 831.891 134.7 831.891 134.145 831.891L134.301 832.938C136.708 832.938 139.981 832.898 142.833 832.469L142.739 831.547C142.067 831.625 141.364 831.68 140.645 831.727V827.531H142.051V826.516ZM136.036 835.5H144.161V839.266H145.379V834.484H136.036V835.5ZM137.114 831.867V827.531H139.458V831.789C138.668 831.828 137.879 831.852 137.114 831.867ZM144.161 833.812H145.379V825.375H144.161V833.812ZM154.123 826.156C152.255 826.141 150.943 827.438 150.951 829.297C150.943 831.148 152.255 832.445 154.123 832.438C155.974 832.445 157.302 831.148 157.31 829.297C157.302 827.438 155.974 826.141 154.123 826.156ZM152.06 829.297C152.044 828.047 152.927 827.164 154.123 827.156C155.302 827.164 156.177 828.047 156.185 829.297C156.177 830.531 155.302 831.414 154.123 831.422C152.927 831.414 152.044 830.531 152.06 829.297ZM153.435 839.078H162.591V833.578H161.388V835.234H154.654V833.578H153.435V839.078ZM154.654 838.078V836.25H161.388V838.078H154.654ZM158.419 832.844H159.576V829.609H161.419V832.953H162.591V825.391H161.419V828.578H159.576V825.656H158.419V832.844ZM180.334 831.562H167.694V832.516H173.397V833.812H169.209V834.734H177.506V835.938H169.241V839.109H179.131V838.172H170.459V836.812H178.709V833.812H174.6V832.516H180.334V831.562ZM168.366 829.984L168.725 830.922C171.053 830.727 173.147 830.008 174.006 828.688C174.858 830.008 176.952 830.727 179.272 830.922L179.647 829.984C177.084 829.82 174.912 828.953 174.694 827.562H179.053V826.594H174.6V825.297H173.397V826.594H168.991V827.562H173.311C173.084 828.953 170.912 829.82 168.366 829.984ZM185.964 829.109V826.578H184.745V829.109C184.729 831.742 183.018 834.398 180.948 835.344L181.729 836.375C183.354 835.555 184.722 833.797 185.362 831.703C186.026 833.68 187.393 835.328 188.979 836.094L189.729 835.125C187.683 834.195 185.956 831.648 185.964 829.109ZM191.245 839.297H192.479V825.375H191.245V839.297ZM205.16 826.281H198.644V831.938H205.16V826.281ZM199.644 838.266L200.082 839.219C202.176 838.93 204.129 837.977 204.965 836.664C205.793 837.945 207.699 838.93 209.785 839.219L210.207 838.266C207.824 837.969 205.59 836.617 205.598 835.266H209.723V834.312H205.566V832.953H204.348V834.312H200.223V835.266H204.332C204.332 836.648 202.035 838 199.644 838.266ZM199.848 830.969V827.281H203.957V830.969H199.848ZM208.16 833.359H209.363V825.375H208.16V833.359ZM218.622 826.219C216.544 826.211 215.005 827.57 215.012 829.516C215.005 831.445 216.544 832.805 218.622 832.797C219.794 832.805 220.794 832.359 221.434 831.625H225.075V833.609H226.309V825.375H225.075V827.391H221.434C220.786 826.656 219.794 826.211 218.622 826.219ZM216.184 829.516C216.184 828.195 217.2 827.273 218.622 827.281C219.997 827.273 221.028 828.195 221.028 829.516C221.028 830.805 219.997 831.758 218.622 831.75C217.2 831.758 216.184 830.805 216.184 829.516ZM217.044 836.578C217.036 838.266 218.817 839.234 221.7 839.234C224.575 839.234 226.356 838.266 226.356 836.578C226.356 834.906 224.575 833.938 221.7 833.938C218.817 833.938 217.036 834.906 217.044 836.578ZM218.247 836.578C218.239 835.523 219.567 834.898 221.7 834.891C223.833 834.898 225.161 835.523 225.153 836.578C225.161 837.625 223.833 838.258 221.7 838.25C219.567 838.258 218.239 837.625 218.247 836.578ZM222.02 828.391H225.075V830.609H222.028C222.145 830.273 222.216 829.906 222.216 829.516C222.216 829.109 222.145 828.734 222.02 828.391ZM231.876 826.453C229.822 826.461 228.384 828.344 228.392 831.297C228.384 834.258 229.822 836.133 231.876 836.125C233.814 836.133 235.204 834.43 235.337 831.703H238.439V839.297H239.658V825.375H238.439V830.688H235.322C235.134 828.086 233.767 826.461 231.876 826.453ZM229.564 831.297C229.572 829.039 230.509 827.555 231.876 827.547C233.236 827.555 234.189 829.039 234.189 831.297C234.189 833.555 233.236 835.039 231.876 835.031C230.509 835.039 229.572 833.555 229.564 831.297ZM256.416 825.375H255.197V839.266H256.416V825.375ZM245.104 835.562L245.291 836.609C247.869 836.609 251.268 836.562 254.369 836.062L254.276 835.125C252.994 835.297 251.635 835.391 250.291 835.453V833.984C251.94 833.797 253.018 832.844 253.01 831.469C253.018 829.898 251.658 828.883 249.651 828.891C247.643 828.883 246.307 829.898 246.322 831.469C246.307 832.859 247.385 833.812 249.057 833.984V835.5C247.651 835.547 246.291 835.555 245.104 835.562ZM245.401 828.094H253.916V827.094H250.291V825.391H249.057V827.094H245.401V828.094ZM247.463 831.469C247.455 830.5 248.362 829.844 249.651 829.844C250.947 829.844 251.846 830.5 251.838 831.469C251.846 832.43 250.947 833.062 249.651 833.047C248.362 833.062 247.455 832.43 247.463 831.469ZM269.155 825.375H267.921V839.266H269.155V832.328H271.374V831.297H269.155V825.375ZM258.202 835.562L258.405 836.609C260.842 836.609 264.124 836.578 267.155 836.062L267.077 835.125C265.866 835.297 264.553 835.406 263.264 835.469V833.984C264.874 833.797 265.944 832.852 265.952 831.469C265.944 829.898 264.592 828.883 262.655 828.891C260.686 828.883 259.358 829.898 259.374 831.469C259.358 832.844 260.413 833.797 262.03 833.984V835.516C260.655 835.555 259.335 835.562 258.202 835.562ZM258.452 828.078H266.827V827.078H263.264V825.406H262.03V827.078H258.452V828.078ZM260.514 831.469C260.522 830.5 261.366 829.844 262.655 829.844C263.921 829.844 264.772 830.5 264.78 831.469C264.772 832.43 263.921 833.062 262.655 833.047C261.366 833.062 260.522 832.43 260.514 831.469ZM286.367 826.734H276.789V827.75H285.164V828.078C285.164 828.703 285.156 829.359 285.125 830.094L276.383 830.453L276.586 831.531L285.07 831.023C284.992 832 284.851 833.102 284.586 834.359L285.789 834.5C286.367 831.672 286.351 829.766 286.367 828.078V826.734ZM275.258 837.375H287.914V836.328H281.429V832.734H280.226V836.328H275.258V837.375ZM295.527 827.422V826.359H294.246V827.422C294.238 829.812 291.543 831.914 289.137 832.375L289.699 833.406C291.801 832.914 293.996 831.43 294.902 829.391C295.801 831.43 298.004 832.922 300.106 833.406L300.668 832.375C298.254 831.922 295.535 829.805 295.527 827.422ZM288.606 837.375H301.324V836.359H288.606V837.375ZM318.146 831.562H305.505V832.516H311.208V833.812H307.021V834.734H315.318V835.938H307.052V839.109H316.943V838.172H308.271V836.812H316.521V833.812H312.411V832.516H318.146V831.562ZM306.177 829.984L306.536 830.922C308.864 830.727 310.958 830.008 311.818 828.688C312.669 830.008 314.763 830.727 317.083 830.922L317.458 829.984C314.896 829.82 312.724 828.953 312.505 827.562H316.864V826.594H312.411V825.297H311.208V826.594H306.802V827.562H311.122C310.896 828.953 308.724 829.82 306.177 829.984ZM323.775 829.109V826.578H322.556V829.109C322.541 831.742 320.83 834.398 318.759 835.344L319.541 836.375C321.166 835.555 322.533 833.797 323.173 831.703C323.837 833.68 325.205 835.328 326.791 836.094L327.541 835.125C325.494 834.195 323.767 831.648 323.775 829.109ZM329.056 839.297H330.291V825.375H329.056V839.297Z" fill="black"/>
<path d="M96.9375 809H104.797V807.297H99.7656V807.219L101.781 805.219C104.008 803.117 104.617 802.086 104.625 800.812C104.617 798.914 103.062 797.531 100.75 797.531C98.4922 797.531 96.8828 798.922 96.8906 801.062H98.8281C98.8203 799.914 99.5703 799.188 100.734 799.188C101.836 799.188 102.672 799.852 102.672 800.906C102.672 801.859 102.078 802.531 100.938 803.672L96.9375 807.531V809ZM110.27 809.156C112.989 809.156 114.614 807.055 114.614 803.344C114.614 799.656 112.981 797.531 110.27 797.531C107.559 797.531 105.918 799.656 105.926 803.344C105.918 807.047 107.543 809.156 110.27 809.156ZM107.973 803.344C107.981 800.648 108.856 799.227 110.27 799.219C111.684 799.227 112.559 800.648 112.567 803.344C112.567 806.062 111.684 807.445 110.27 807.453C108.848 807.445 107.973 806.062 107.973 803.344ZM120.431 797.688H118.478L115.681 799.5V801.359L118.321 799.672H118.384V809H120.431V797.688ZM126.716 797.531C124.208 797.516 122.544 799.195 122.544 801.406C122.552 803.547 124.115 805.086 126.138 805.078C127.38 805.086 128.474 804.5 129.044 803.516H129.169C129.154 805.945 128.232 807.391 126.591 807.391C125.568 807.391 124.872 806.82 124.669 805.922H122.654C122.904 807.797 124.412 809.156 126.591 809.156C129.372 809.156 131.138 806.898 131.138 803C131.13 798.867 128.927 797.547 126.716 797.531ZM124.529 801.359C124.513 800.148 125.458 799.18 126.732 799.172C127.997 799.18 128.919 800.195 128.919 801.344C128.927 802.516 127.958 803.531 126.701 803.531C125.435 803.531 124.529 802.578 124.529 801.359ZM133.143 809.125C133.791 809.125 134.346 808.578 134.346 807.906C134.346 807.25 133.791 806.711 133.143 806.703C132.471 806.711 131.916 807.25 131.924 807.906C131.916 808.578 132.471 809.125 133.143 809.125ZM138.975 797.688H137.022L134.225 799.5V801.359L136.866 799.672H136.928V809H138.975V797.688ZM141.245 809H149.104V807.297H144.073V807.219L146.089 805.219C148.315 803.117 148.925 802.086 148.932 800.812C148.925 798.914 147.37 797.531 145.057 797.531C142.8 797.531 141.19 798.922 141.198 801.062H143.136C143.128 799.914 143.878 799.188 145.042 799.188C146.143 799.188 146.979 799.852 146.979 800.906C146.979 801.859 146.386 802.531 145.245 803.672L141.245 807.531V809Z" fill="black"/>
<path d="M3.40625 815H15.1953V812.445H7.64844V812.328L10.6719 809.328C14.0117 806.176 14.9258 804.629 14.9375 802.719C14.9258 799.871 12.5938 797.797 9.125 797.797C5.73828 797.797 3.32422 799.883 3.33594 803.094H6.24219C6.23047 801.371 7.35547 800.281 9.10156 800.281C10.7539 800.281 12.0078 801.277 12.0078 802.859C12.0078 804.289 11.1172 805.297 9.40625 807.008L3.40625 812.797V815ZM23.405 815.234C27.4831 815.234 29.9206 812.082 29.9206 806.516C29.9206 800.984 27.4714 797.797 23.405 797.797C19.3386 797.797 16.8777 800.984 16.8894 806.516C16.8777 812.07 19.3152 815.234 23.405 815.234ZM19.9597 806.516C19.9714 802.473 21.2839 800.34 23.405 800.328C25.5261 800.34 26.8386 802.473 26.8503 806.516C26.8503 810.594 25.5261 812.668 23.405 812.68C21.2722 812.668 19.9597 810.594 19.9597 806.516ZM38.6459 798.031H35.7162L31.5209 800.75V803.539L35.4819 801.008H35.5756V815H38.6459V798.031ZM48.0744 797.797C44.3127 797.773 41.8166 800.293 41.8166 803.609C41.8283 806.82 44.172 809.129 47.2072 809.117C49.0705 809.129 50.7111 808.25 51.5666 806.773H51.7541C51.7306 810.418 50.3478 812.586 47.8869 812.586C46.3517 812.586 45.3088 811.73 45.0041 810.383H41.9806C42.3556 813.195 44.6173 815.234 47.8869 815.234C52.0588 815.234 54.7072 811.848 54.7072 806C54.6955 799.801 51.3908 797.82 48.0744 797.797ZM44.7931 803.539C44.7697 801.723 46.1877 800.27 48.0978 800.258C49.9963 800.27 51.3791 801.793 51.3791 803.516C51.3908 805.273 49.9377 806.797 48.0509 806.797C46.1525 806.797 44.7931 805.367 44.7931 803.539Z" fill="#1C49FF"/>
<path d="M1.40625 645H13.1953V642.445H5.64844V642.328L8.67188 639.328C12.0117 636.176 12.9258 634.629 12.9375 632.719C12.9258 629.871 10.5938 627.797 7.125 627.797C3.73828 627.797 1.32422 629.883 1.33594 633.094H4.24219C4.23047 631.371 5.35547 630.281 7.10156 630.281C8.75391 630.281 10.0078 631.277 10.0078 632.859C10.0078 634.289 9.11719 635.297 7.40625 637.008L1.40625 642.797V645ZM21.405 645.234C25.4831 645.234 27.9206 642.082 27.9206 636.516C27.9206 630.984 25.4714 627.797 21.405 627.797C17.3386 627.797 14.8777 630.984 14.8894 636.516C14.8777 642.07 17.3152 645.234 21.405 645.234ZM17.9597 636.516C17.9714 632.473 19.2839 630.34 21.405 630.328C23.5261 630.34 24.8386 632.473 24.8503 636.516C24.8503 640.594 23.5261 642.668 21.405 642.68C19.2722 642.668 17.9597 640.594 17.9597 636.516ZM29.7553 645H41.5444V642.445H33.9975V642.328L37.0209 639.328C40.3608 636.176 41.2748 634.629 41.2866 632.719C41.2748 629.871 38.9428 627.797 35.4741 627.797C32.0873 627.797 29.6733 629.883 29.685 633.094H32.5912C32.5795 631.371 33.7045 630.281 35.4506 630.281C37.103 630.281 38.3569 631.277 38.3569 632.859C38.3569 634.289 37.4662 635.297 35.7553 637.008L29.7553 642.797V645ZM49.7541 645.234C53.8322 645.234 56.2697 642.082 56.2697 636.516C56.2697 630.984 53.8205 627.797 49.7541 627.797C45.6877 627.797 43.2267 630.984 43.2384 636.516C43.2267 642.07 45.6642 645.234 49.7541 645.234ZM46.3088 636.516C46.3205 632.473 47.633 630.34 49.7541 630.328C51.8752 630.34 53.1877 632.473 53.1994 636.516C53.1994 640.594 51.8752 642.668 49.7541 642.68C47.6213 642.668 46.3088 640.594 46.3088 636.516Z" fill="#1C49FF"/>
<path d="M3.40625 543H15.1953V540.445H7.64844V540.328L10.6719 537.328C14.0117 534.176 14.9258 532.629 14.9375 530.719C14.9258 527.871 12.5938 525.797 9.125 525.797C5.73828 525.797 3.32422 527.883 3.33594 531.094H6.24219C6.23047 529.371 7.35547 528.281 9.10156 528.281C10.7539 528.281 12.0078 529.277 12.0078 530.859C12.0078 532.289 11.1172 533.297 9.40625 535.008L3.40625 540.797V543ZM23.405 543.234C27.4831 543.234 29.9206 540.082 29.9206 534.516C29.9206 528.984 27.4714 525.797 23.405 525.797C19.3386 525.797 16.8777 528.984 16.8894 534.516C16.8777 540.07 19.3152 543.234 23.405 543.234ZM19.9597 534.516C19.9714 530.473 21.2839 528.34 23.405 528.328C25.5261 528.34 26.8386 530.473 26.8503 534.516C26.8503 538.594 25.5261 540.668 23.405 540.68C21.2722 540.668 19.9597 538.594 19.9597 534.516ZM31.7553 543H43.5444V540.445H35.9975V540.328L39.0209 537.328C42.3608 534.176 43.2748 532.629 43.2866 530.719C43.2748 527.871 40.9428 525.797 37.4741 525.797C34.0873 525.797 31.6733 527.883 31.685 531.094H34.5912C34.5795 529.371 35.7045 528.281 37.4506 528.281C39.103 528.281 40.3569 529.277 40.3569 530.859C40.3569 532.289 39.4662 533.297 37.7553 535.008L31.7553 540.797V543ZM52.3869 526.031H49.4572L45.2619 528.75V531.539L49.2228 529.008H49.3166V543H52.3869V526.031Z" fill="#1C49FF"/>
<path d="M3.40625 28H15.1953V25.4453H7.64844V25.3281L10.6719 22.3281C14.0117 19.1758 14.9258 17.6289 14.9375 15.7188C14.9258 12.8711 12.5938 10.7969 9.125 10.7969C5.73828 10.7969 3.32422 12.8828 3.33594 16.0938H6.24219C6.23047 14.3711 7.35547 13.2812 9.10156 13.2812C10.7539 13.2812 12.0078 14.2773 12.0078 15.8594C12.0078 17.2891 11.1172 18.2969 9.40625 20.0078L3.40625 25.7969V28ZM23.405 28.2344C27.4831 28.2344 29.9206 25.082 29.9206 19.5156C29.9206 13.9844 27.4714 10.7969 23.405 10.7969C19.3386 10.7969 16.8777 13.9844 16.8894 19.5156C16.8777 25.0703 19.3152 28.2344 23.405 28.2344ZM19.9597 19.5156C19.9714 15.4727 21.2839 13.3398 23.405 13.3281C25.5261 13.3398 26.8386 15.4727 26.8503 19.5156C26.8503 23.5938 25.5261 25.668 23.405 25.6797C21.2722 25.668 19.9597 23.5938 19.9597 19.5156ZM31.7553 28H43.5444V25.4453H35.9975V25.3281L39.0209 22.3281C42.3608 19.1758 43.2748 17.6289 43.2866 15.7188C43.2748 12.8711 40.9428 10.7969 37.4741 10.7969C34.0873 10.7969 31.6733 12.8828 31.685 16.0938H34.5912C34.5795 14.3711 35.7045 13.2812 37.4506 13.2812C39.103 13.2812 40.3569 14.2773 40.3569 15.8594C40.3569 17.2891 39.4662 18.2969 37.7553 20.0078L31.7553 25.7969V28ZM45.4963 28H57.2853V25.4453H49.7384V25.3281L52.7619 22.3281C56.1017 19.1758 57.0158 17.6289 57.0275 15.7188C57.0158 12.8711 54.6838 10.7969 51.215 10.7969C47.8283 10.7969 45.4142 12.8828 45.4259 16.0938H48.3322C48.3205 14.3711 49.4455 13.2812 51.1916 13.2812C52.8439 13.2812 54.0978 14.2773 54.0978 15.8594C54.0978 17.2891 53.2072 18.2969 51.4963 20.0078L45.4963 25.7969V28Z" fill="#1C49FF"/>
<path d="M96.9375 727H104.797V725.297H99.7656V725.219L101.781 723.219C104.008 721.117 104.617 720.086 104.625 718.812C104.617 716.914 103.062 715.531 100.75 715.531C98.4922 715.531 96.8828 716.922 96.8906 719.062H98.8281C98.8203 717.914 99.5703 717.188 100.734 717.188C101.836 717.188 102.672 717.852 102.672 718.906C102.672 719.859 102.078 720.531 100.938 721.672L96.9375 725.531V727ZM110.27 727.156C112.989 727.156 114.614 725.055 114.614 721.344C114.614 717.656 112.981 715.531 110.27 715.531C107.559 715.531 105.918 717.656 105.926 721.344C105.918 725.047 107.543 727.156 110.27 727.156ZM107.973 721.344C107.981 718.648 108.856 717.227 110.27 717.219C111.684 717.227 112.559 718.648 112.567 721.344C112.567 724.062 111.684 725.445 110.27 725.453C108.848 725.445 107.973 724.062 107.973 721.344ZM115.837 727H123.696V725.297H118.665V725.219L120.681 723.219C122.907 721.117 123.517 720.086 123.524 718.812C123.517 716.914 121.962 715.531 119.649 715.531C117.392 715.531 115.782 716.922 115.79 719.062H117.728C117.72 717.914 118.47 717.188 119.634 717.188C120.735 717.188 121.571 717.852 121.571 718.906C121.571 719.859 120.978 720.531 119.837 721.672L115.837 725.531V727ZM129.169 727.156C131.888 727.156 133.513 725.055 133.513 721.344C133.513 717.656 131.88 715.531 129.169 715.531C126.458 715.531 124.818 717.656 124.826 721.344C124.818 725.047 126.443 727.156 129.169 727.156ZM126.872 721.344C126.88 718.648 127.755 717.227 129.169 717.219C130.583 717.227 131.458 718.648 131.466 721.344C131.466 724.062 130.583 725.445 129.169 725.453C127.747 725.445 126.872 724.062 126.872 721.344ZM135.533 727.125C136.182 727.125 136.736 726.578 136.736 725.906C136.736 725.25 136.182 724.711 135.533 724.703C134.861 724.711 134.307 725.25 134.314 725.906C134.307 726.578 134.861 727.125 135.533 727.125ZM141.366 715.688H139.412L136.616 717.5V719.359L139.256 717.672H139.319V727H141.366V715.688ZM148.229 715.688H146.276L143.479 717.5V719.359L146.12 717.672H146.182V727H148.229V715.688Z" fill="black"/>
<path d="M96.9375 638H104.797V636.297H99.7656V636.219L101.781 634.219C104.008 632.117 104.617 631.086 104.625 629.812C104.617 627.914 103.062 626.531 100.75 626.531C98.4922 626.531 96.8828 627.922 96.8906 630.062H98.8281C98.8203 628.914 99.5703 628.188 100.734 628.188C101.836 628.188 102.672 628.852 102.672 629.906C102.672 630.859 102.078 631.531 100.938 632.672L96.9375 636.531V638ZM110.27 638.156C112.989 638.156 114.614 636.055 114.614 632.344C114.614 628.656 112.981 626.531 110.27 626.531C107.559 626.531 105.918 628.656 105.926 632.344C105.918 636.047 107.543 638.156 110.27 638.156ZM107.973 632.344C107.981 629.648 108.856 628.227 110.27 628.219C111.684 628.227 112.559 629.648 112.567 632.344C112.567 635.062 111.684 636.445 110.27 636.453C108.848 636.445 107.973 635.062 107.973 632.344ZM115.837 638H123.696V636.297H118.665V636.219L120.681 634.219C122.907 632.117 123.517 631.086 123.524 629.812C123.517 627.914 121.962 626.531 119.649 626.531C117.392 626.531 115.782 627.922 115.79 630.062H117.728C117.72 628.914 118.47 628.188 119.634 628.188C120.735 628.188 121.571 628.852 121.571 629.906C121.571 630.859 120.978 631.531 119.837 632.672L115.837 636.531V638ZM129.169 638.156C131.888 638.156 133.513 636.055 133.513 632.344C133.513 628.656 131.88 626.531 129.169 626.531C126.458 626.531 124.818 628.656 124.826 632.344C124.818 636.047 126.443 638.156 129.169 638.156ZM126.872 632.344C126.88 629.648 127.755 628.227 129.169 628.219C130.583 628.227 131.458 629.648 131.466 632.344C131.466 635.062 130.583 636.445 129.169 636.453C127.747 636.445 126.872 635.062 126.872 632.344ZM135.533 638.125C136.182 638.125 136.736 637.578 136.736 636.906C136.736 636.25 136.182 635.711 135.533 635.703C134.861 635.711 134.307 636.25 134.314 636.906C134.307 637.578 134.861 638.125 135.533 638.125ZM141.366 626.688H139.412L136.616 628.5V630.359L139.256 628.672H139.319V638H141.366V626.688ZM143.636 638H151.495V636.297H146.464V636.219L148.479 634.219C150.706 632.117 151.315 631.086 151.323 629.812C151.315 627.914 149.761 626.531 147.448 626.531C145.19 626.531 143.581 627.922 143.589 630.062H145.526C145.518 628.914 146.268 628.188 147.432 628.188C148.534 628.188 149.37 628.852 149.37 629.906C149.37 630.859 148.776 631.531 147.636 632.672L143.636 636.531V638Z" fill="black"/>
<path d="M98.9375 535H106.797V533.297H101.766V533.219L103.781 531.219C106.008 529.117 106.617 528.086 106.625 526.812C106.617 524.914 105.062 523.531 102.75 523.531C100.492 523.531 98.8828 524.922 98.8906 527.062H100.828C100.82 525.914 101.57 525.188 102.734 525.188C103.836 525.188 104.672 525.852 104.672 526.906C104.672 527.859 104.078 528.531 102.938 529.672L98.9375 533.531V535ZM112.27 535.156C114.989 535.156 116.614 533.055 116.614 529.344C116.614 525.656 114.981 523.531 112.27 523.531C109.559 523.531 107.918 525.656 107.926 529.344C107.918 533.047 109.543 535.156 112.27 535.156ZM109.973 529.344C109.981 526.648 110.856 525.227 112.27 525.219C113.684 525.227 114.559 526.648 114.567 529.344C114.567 532.062 113.684 533.445 112.27 533.453C110.848 533.445 109.973 532.062 109.973 529.344ZM117.837 535H125.696V533.297H120.665V533.219L122.681 531.219C124.907 529.117 125.517 528.086 125.524 526.812C125.517 524.914 123.962 523.531 121.649 523.531C119.392 523.531 117.782 524.922 117.79 527.062H119.728C119.72 525.914 120.47 525.188 121.634 525.188C122.735 525.188 123.571 525.852 123.571 526.906C123.571 527.859 122.978 528.531 121.837 529.672L117.837 533.531V535ZM131.591 523.688H129.638L126.841 525.5V527.359L129.482 525.672H129.544V535H131.591V523.688ZM134.486 535.125C135.135 535.125 135.689 534.578 135.689 533.906C135.689 533.25 135.135 532.711 134.486 532.703C133.814 532.711 133.26 533.25 133.268 533.906C133.26 534.578 133.814 535.125 134.486 535.125ZM140.834 535.156C143.553 535.156 145.178 533.055 145.178 529.344C145.178 525.656 143.545 523.531 140.834 523.531C138.123 523.531 136.483 525.656 136.491 529.344C136.483 533.047 138.108 535.156 140.834 535.156ZM138.537 529.344C138.545 526.648 139.42 525.227 140.834 525.219C142.248 525.227 143.123 526.648 143.131 529.344C143.131 532.062 142.248 533.445 140.834 533.453C139.412 533.445 138.537 532.062 138.537 529.344ZM150.995 523.688H149.042L146.245 525.5V527.359L148.886 525.672H148.948V535H150.995V523.688Z" fill="black"/>
<path d="M97.9375 427H105.797V425.297H100.766V425.219L102.781 423.219C105.008 421.117 105.617 420.086 105.625 418.812C105.617 416.914 104.062 415.531 101.75 415.531C99.4922 415.531 97.8828 416.922 97.8906 419.062H99.8281C99.8203 417.914 100.57 417.188 101.734 417.188C102.836 417.188 103.672 417.852 103.672 418.906C103.672 419.859 103.078 420.531 101.938 421.672L97.9375 425.531V427ZM111.27 427.156C113.989 427.156 115.614 425.055 115.614 421.344C115.614 417.656 113.981 415.531 111.27 415.531C108.559 415.531 106.918 417.656 106.926 421.344C106.918 425.047 108.543 427.156 111.27 427.156ZM108.973 421.344C108.981 418.648 109.856 417.227 111.27 417.219C112.684 417.227 113.559 418.648 113.567 421.344C113.567 424.062 112.684 425.445 111.27 425.453C109.848 425.445 108.973 424.062 108.973 421.344ZM116.837 427H124.696V425.297H119.665V425.219L121.681 423.219C123.907 421.117 124.517 420.086 124.524 418.812C124.517 416.914 122.962 415.531 120.649 415.531C118.392 415.531 116.782 416.922 116.79 419.062H118.728C118.72 417.914 119.47 417.188 120.634 417.188C121.735 417.188 122.571 417.852 122.571 418.906C122.571 419.859 121.978 420.531 120.837 421.672L116.837 425.531V427ZM125.997 427H133.857V425.297H128.826V425.219L130.841 423.219C133.068 421.117 133.677 420.086 133.685 418.812C133.677 416.914 132.122 415.531 129.81 415.531C127.552 415.531 125.943 416.922 125.951 419.062H127.888C127.88 417.914 128.63 417.188 129.794 417.188C130.896 417.188 131.732 417.852 131.732 418.906C131.732 419.859 131.138 420.531 129.997 421.672L125.997 425.531V427ZM136.408 427.125C137.057 427.125 137.611 426.578 137.611 425.906C137.611 425.25 137.057 424.711 136.408 424.703C135.736 424.711 135.182 425.25 135.189 425.906C135.182 426.578 135.736 427.125 136.408 427.125ZM142.756 427.156C145.475 427.156 147.1 425.055 147.1 421.344C147.1 417.656 145.467 415.531 142.756 415.531C140.045 415.531 138.405 417.656 138.412 421.344C138.405 425.047 140.03 427.156 142.756 427.156ZM140.459 421.344C140.467 418.648 141.342 417.227 142.756 417.219C144.17 417.227 145.045 418.648 145.053 421.344C145.053 424.062 144.17 425.445 142.756 425.453C141.334 425.445 140.459 424.062 140.459 421.344ZM152.917 415.688H150.964L148.167 417.5V419.359L150.807 417.672H150.87V427H152.917V415.688Z" fill="black"/>
<path d="M96.9375 333H104.797V331.297H99.7656V331.219L101.781 329.219C104.008 327.117 104.617 326.086 104.625 324.812C104.617 322.914 103.062 321.531 100.75 321.531C98.4922 321.531 96.8828 322.922 96.8906 325.062H98.8281C98.8203 323.914 99.5703 323.188 100.734 323.188C101.836 323.188 102.672 323.852 102.672 324.906C102.672 325.859 102.078 326.531 100.938 327.672L96.9375 331.531V333ZM110.27 333.156C112.989 333.156 114.614 331.055 114.614 327.344C114.614 323.656 112.981 321.531 110.27 321.531C107.559 321.531 105.918 323.656 105.926 327.344C105.918 331.047 107.543 333.156 110.27 333.156ZM107.973 327.344C107.981 324.648 108.856 323.227 110.27 323.219C111.684 323.227 112.559 324.648 112.567 327.344C112.567 330.062 111.684 331.445 110.27 331.453C108.848 331.445 107.973 330.062 107.973 327.344ZM115.837 333H123.696V331.297H118.665V331.219L120.681 329.219C122.907 327.117 123.517 326.086 123.524 324.812C123.517 322.914 121.962 321.531 119.649 321.531C117.392 321.531 115.782 322.922 115.79 325.062H117.728C117.72 323.914 118.47 323.188 119.634 323.188C120.735 323.188 121.571 323.852 121.571 324.906C121.571 325.859 120.978 326.531 119.837 327.672L115.837 331.531V333ZM124.997 333H132.857V331.297H127.826V331.219L129.841 329.219C132.068 327.117 132.677 326.086 132.685 324.812C132.677 322.914 131.122 321.531 128.81 321.531C126.552 321.531 124.943 322.922 124.951 325.062H126.888C126.88 323.914 127.63 323.188 128.794 323.188C129.896 323.188 130.732 323.852 130.732 324.906C130.732 325.859 130.138 326.531 128.997 327.672L124.997 331.531V333ZM135.408 333.125C136.057 333.125 136.611 332.578 136.611 331.906C136.611 331.25 136.057 330.711 135.408 330.703C134.736 330.711 134.182 331.25 134.189 331.906C134.182 332.578 134.736 333.125 135.408 333.125ZM141.756 333.156C144.475 333.156 146.1 331.055 146.1 327.344C146.1 323.656 144.467 321.531 141.756 321.531C139.045 321.531 137.405 323.656 137.412 327.344C137.405 331.047 139.03 333.156 141.756 333.156ZM139.459 327.344C139.467 324.648 140.342 323.227 141.756 323.219C143.17 323.227 144.045 324.648 144.053 327.344C144.053 330.062 143.17 331.445 141.756 331.453C140.334 331.445 139.459 330.062 139.459 327.344ZM147.12 330.891H152.604V333H154.542V330.891H156.026V329.219H154.542V321.688H152.011L147.12 329.266V330.891ZM149.198 329.219V329.141L152.511 324H152.636V329.219H149.198Z" fill="black"/>
<path d="M96.9375 222H104.797V220.297H99.7656V220.219L101.781 218.219C104.008 216.117 104.617 215.086 104.625 213.812C104.617 211.914 103.062 210.531 100.75 210.531C98.4922 210.531 96.8828 211.922 96.8906 214.062H98.8281C98.8203 212.914 99.5703 212.188 100.734 212.188C101.836 212.188 102.672 212.852 102.672 213.906C102.672 214.859 102.078 215.531 100.938 216.672L96.9375 220.531V222ZM110.27 222.156C112.989 222.156 114.614 220.055 114.614 216.344C114.614 212.656 112.981 210.531 110.27 210.531C107.559 210.531 105.918 212.656 105.926 216.344C105.918 220.047 107.543 222.156 110.27 222.156ZM107.973 216.344C107.981 213.648 108.856 212.227 110.27 212.219C111.684 212.227 112.559 213.648 112.567 216.344C112.567 219.062 111.684 220.445 110.27 220.453C108.848 220.445 107.973 219.062 107.973 216.344ZM115.837 222H123.696V220.297H118.665V220.219L120.681 218.219C122.907 216.117 123.517 215.086 123.524 213.812C123.517 211.914 121.962 210.531 119.649 210.531C117.392 210.531 115.782 211.922 115.79 214.062H117.728C117.72 212.914 118.47 212.188 119.634 212.188C120.735 212.188 121.571 212.852 121.571 213.906C121.571 214.859 120.978 215.531 119.837 216.672L115.837 220.531V222ZM124.997 222H132.857V220.297H127.826V220.219L129.841 218.219C132.068 216.117 132.677 215.086 132.685 213.812C132.677 211.914 131.122 210.531 128.81 210.531C126.552 210.531 124.943 211.922 124.951 214.062H126.888C126.88 212.914 127.63 212.188 128.794 212.188C129.896 212.188 130.732 212.852 130.732 213.906C130.732 214.859 130.138 215.531 128.997 216.672L124.997 220.531V222ZM135.408 222.125C136.057 222.125 136.611 221.578 136.611 220.906C136.611 220.25 136.057 219.711 135.408 219.703C134.736 219.711 134.182 220.25 134.189 220.906C134.182 221.578 134.736 222.125 135.408 222.125ZM141.756 222.156C144.475 222.156 146.1 220.055 146.1 216.344C146.1 212.656 144.467 210.531 141.756 210.531C139.045 210.531 137.405 212.656 137.412 216.344C137.405 220.047 139.03 222.156 141.756 222.156ZM139.459 216.344C139.467 213.648 140.342 212.227 141.756 212.219C143.17 212.227 144.045 213.648 144.053 216.344C144.053 219.062 143.17 220.445 141.756 220.453C140.334 220.445 139.459 219.062 139.459 216.344ZM151.557 222.156C154.057 222.172 155.737 220.5 155.729 218.25C155.737 216.109 154.167 214.57 152.136 214.578C150.893 214.57 149.807 215.148 149.229 216.125H149.12C149.128 213.742 150.042 212.289 151.682 212.297C152.714 212.289 153.401 212.867 153.604 213.734H155.62C155.362 211.898 153.862 210.531 151.682 210.531C148.909 210.531 147.151 212.789 147.151 216.656C147.143 220.828 149.347 222.141 151.557 222.156ZM149.339 218.312C149.354 217.133 150.315 216.125 151.589 216.125C152.847 216.125 153.753 217.094 153.761 218.297C153.753 219.539 152.815 220.508 151.557 220.516C150.276 220.508 149.354 219.492 149.339 218.312Z" fill="black"/>
<path d="M96.9375 73H104.797V71.2969H99.7656V71.2188L101.781 69.2188C104.008 67.1172 104.617 66.0859 104.625 64.8125C104.617 62.9141 103.062 61.5312 100.75 61.5312C98.4922 61.5312 96.8828 62.9219 96.8906 65.0625H98.8281C98.8203 63.9141 99.5703 63.1875 100.734 63.1875C101.836 63.1875 102.672 63.8516 102.672 64.9062C102.672 65.8594 102.078 66.5312 100.938 67.6719L96.9375 71.5312V73ZM110.27 73.1562C112.989 73.1562 114.614 71.0547 114.614 67.3438C114.614 63.6562 112.981 61.5312 110.27 61.5312C107.559 61.5312 105.918 63.6562 105.926 67.3438C105.918 71.0469 107.543 73.1562 110.27 73.1562ZM107.973 67.3438C107.981 64.6484 108.856 63.2266 110.27 63.2188C111.684 63.2266 112.559 64.6484 112.567 67.3438C112.567 70.0625 111.684 71.4453 110.27 71.4531C108.848 71.4453 107.973 70.0625 107.973 67.3438ZM115.837 73H123.696V71.2969H118.665V71.2188L120.681 69.2188C122.907 67.1172 123.517 66.0859 123.524 64.8125C123.517 62.9141 121.962 61.5312 119.649 61.5312C117.392 61.5312 115.782 62.9219 115.79 65.0625H117.728C117.72 63.9141 118.47 63.1875 119.634 63.1875C120.735 63.1875 121.571 63.8516 121.571 64.9062C121.571 65.8594 120.978 66.5312 119.837 67.6719L115.837 71.5312V73ZM124.997 73H132.857V71.2969H127.826V71.2188L129.841 69.2188C132.068 67.1172 132.677 66.0859 132.685 64.8125C132.677 62.9141 131.122 61.5312 128.81 61.5312C126.552 61.5312 124.943 62.9219 124.951 65.0625H126.888C126.88 63.9141 127.63 63.1875 128.794 63.1875C129.896 63.1875 130.732 63.8516 130.732 64.9062C130.732 65.8594 130.138 66.5312 128.997 67.6719L124.997 71.5312V73ZM135.408 73.125C136.057 73.125 136.611 72.5781 136.611 71.9062C136.611 71.25 136.057 70.7109 135.408 70.7031C134.736 70.7109 134.182 71.25 134.189 71.9062C134.182 72.5781 134.736 73.125 135.408 73.125ZM141.241 61.6875H139.287L136.491 63.5V65.3594L139.131 63.6719H139.194V73H141.241V61.6875ZM148.104 61.6875H146.151L143.354 63.5V65.3594L145.995 63.6719H146.057V73H148.104V61.6875Z" fill="black"/>
<circle cx="82" cy="15" r="6" fill="#1C49FF"/>
<circle cx="82" cy="327" r="4" fill="#1C49FF"/>
<circle cx="82" cy="218" r="4" fill="#1C49FF"/>
<circle cx="82" cy="67" r="4" fill="#1C49FF"/>
<circle cx="82" cy="424" r="4" fill="#1C49FF"/>
<circle cx="82" cy="721" r="4" fill="#1C49FF"/>
<circle cx="82" cy="804" r="6" fill="#1C49FF"/>
<circle cx="82" cy="530" r="6" fill="#1C49FF"/>
<circle cx="81" cy="632" r="6" fill="#1C49FF"/>
</svg>
